<?xml version="1.0" encoding="UTF-8" standalone="no"?>
<!-- Created with Inkscape (http://www.inkscape.org/) -->

<svg
   xmlns:dc="http://purl.org/dc/elements/1.1/"
   xmlns:cc="http://creativecommons.org/ns#"
   xmlns:rdf="http://www.w3.org/1999/02/22-rdf-syntax-ns#"
   xmlns:svg="http://www.w3.org/2000/svg"
   xmlns="http://www.w3.org/2000/svg"
   xmlns:sodipodi="http://sodipodi.sourceforge.net/DTD/sodipodi-0.dtd"
   xmlns:inkscape="http://www.inkscape.org/namespaces/inkscape"
   width="153"
   height="32"
   id="svg4686"
   version="1.1"
   inkscape:version="0.48.4 r9939"
   sodipodi:docname="content-title.svg"
   inkscape:export-filename="/home/user/dev/if.then.fund/itfsite/static/branding/content-title.png"
   inkscape:export-xdpi="42.1875"
   inkscape:export-ydpi="42.1875">
  <defs
     id="defs4688" />
  <sodipodi:namedview
     id="base"
     pagecolor="#ffffff"
     bordercolor="#666666"
     borderopacity="1.0"
     inkscape:pageopacity="0.0"
     inkscape:pageshadow="2"
     inkscape:zoom="15.839192"
     inkscape:cx="32.643263"
     inkscape:cy="9.22304"
     inkscape:document-units="px"
     inkscape:current-layer="layer1"
     showgrid="false"
     inkscape:window-width="1680"
     inkscape:window-height="1026"
     inkscape:window-x="1680"
     inkscape:window-y="24"
     inkscape:window-maximized="1" />
  <metadata
     id="metadata4691">
    <rdf:RDF>
      <cc:Work
         rdf:about="">
        <dc:format>image/svg+xml</dc:format>
        <dc:type
           rdf:resource="http://purl.org/dc/dcmitype/StillImage" />
        <dc:title></dc:title>
      </cc:Work>
    </rdf:RDF>
  </metadata>
  <g
     inkscape:label="Layer 1"
     inkscape:groupmode="layer"
     id="layer1"
     transform="translate(0,-1020.3622)">
    <path
       id="path1412"
       d="M 0.04455782,1032.1904 H 4.3948214 v 20.273 H 0.04455782 v -20.273 z"
       inkscape:connector-curvature="0"
       style="fill:#52651b;fill-opacity:1" />
    <path
       id="path1414"
       d="m 13.992126,1026.0438 c -0.539175,0 -1.078349,0.2157 -1.401854,0.5392 -0.431339,0.4313 -0.539174,0.8627 -0.539174,1.4018 v 8.0877 h 4.097725 v 4.0977 h -4.097725 v 12.1853 H 7.9533725 v -24.2628 c 0,-0.8627 0.2156697,-1.6175 0.5391744,-2.3724 0.3235046,-0.7548 0.7548441,-1.4018 1.2940185,-1.941 0.5391746,-0.5392 1.1861836,-0.9705 1.9410276,-1.294 0.754844,-0.3235 1.509688,-0.5392 2.372368,-0.5392 0.862679,0 1.617523,0.2157 2.372367,0.5392 0.754844,0.3235 1.401853,0.7548 1.941028,1.294 0.539174,0.5392 0.970514,1.1862 1.294018,1.941 0.323505,0.7549 0.539175,1.5097 0.539175,2.3724 h -4.097726 c 0,-0.5392 -0.21567,-1.0784 -0.539174,-1.4019 -0.539175,-0.4313 -1.078349,-0.647 -1.617523,-0.647 z"
       inkscape:connector-curvature="0"
       style="fill:#52651b;fill-opacity:1" />
    <path
       id="path1416"
       d="m 34.912092,1036.1803 h -4.852569 v 16.1752 h -3.989891 v -16.1752 h -3.235046 v -4.0977 h 3.235046 v -8.0876 h 4.097726 v 8.0876 h 4.852569 v 4.0977 z"
       inkscape:connector-curvature="0"
       style="fill:#52651b;fill-opacity:1" />
    <path
       id="path1418"
       d="m 43.431048,1031.9747 c 0.862679,0 1.617523,0.2157 2.372367,0.5392 0.754844,0.3235 1.401854,0.7549 1.941028,1.294 0.539174,0.5392 0.970514,1.1862 1.294019,1.9411 0.323504,0.7548 0.539174,1.5096 0.539174,2.3723 v 14.4499 h -4.097725 v -14.4499 c 0,-0.5391 -0.21567,-1.0783 -0.539175,-1.4018 -0.431339,-0.4314 -0.862679,-0.5392 -1.401853,-0.5392 -0.539175,0 -1.078349,0.2157 -1.401854,0.5392 -0.431339,0.4313 -0.539174,0.8627 -0.539174,1.4018 v 14.4499 h -4.097726 v -28.3606 h 4.097726 v 8.3033 c 0.539174,-0.4313 1.186184,-0.5392 1.833193,-0.5392 z"
       inkscape:connector-curvature="0"
       style="fill:#52651b;fill-opacity:1" />
    <path
       id="path1420"
       d="m 59.498445,1048.5813 c 0.539174,0 1.078349,-0.2157 1.401853,-0.5392 0.43134,-0.4313 0.539175,-0.8626 0.539175,-1.4018 h 4.097725 c 0,0.8627 -0.215669,1.6175 -0.539174,2.3723 -0.323505,0.7549 -0.754844,1.4019 -1.294019,1.9411 -0.539174,0.5392 -1.186183,0.9705 -1.941028,1.294 -0.754844,0.3235 -1.509688,0.5392 -2.372367,0.5392 -0.862679,0 -1.617523,-0.2157 -2.372367,-0.5392 -0.754844,-0.3235 -1.401854,-0.7548 -1.941028,-1.294 -0.539174,-0.5392 -0.970514,-1.1862 -1.294019,-1.9411 -0.323504,-0.7548 -0.539174,-1.5096 -0.539174,-2.3723 v -8.519 c 0,-0.8627 0.21567,-1.6175 0.539174,-2.3723 0.323505,-0.7549 0.754845,-1.4019 1.294019,-1.9411 0.539174,-0.5391 1.186184,-0.9705 1.941028,-1.294 0.754844,-0.3235 1.509688,-0.5392 2.372367,-0.5392 0.862679,0 1.617523,0.2157 2.372367,0.5392 0.754845,0.3235 1.401854,0.7549 1.941028,1.294 0.539175,0.5392 0.970514,1.1862 1.294019,1.9411 0.323505,0.7548 0.539174,1.5096 0.539174,2.3723 v 5.0683 h -8.087616 v 3.4507 c 0,0.5392 0.21567,1.0783 0.539175,1.4018 0.431339,0.3235 0.970514,0.5392 1.509688,0.5392 z m -2.048863,-8.5189 h 4.097726 v -2.0489 c 0,-0.5392 -0.21567,-1.0784 -0.539175,-1.4019 -0.431339,-0.4313 -0.862679,-0.5391 -1.401853,-0.5391 -0.539175,0 -1.078349,0.2156 -1.401854,0.5391 -0.431339,0.4314 -0.539174,0.8627 -0.539174,1.4019 v 2.0489 z"
       inkscape:connector-curvature="0"
       style="fill:#52651b;fill-opacity:1" />
    <path
       id="path1422"
       d="m 75.565842,1031.9747 c 0.862679,0 1.617523,0.2157 2.372367,0.5392 0.754845,0.3235 1.401854,0.7549 1.941028,1.294 0.539175,0.5392 0.970514,1.1862 1.294019,1.9411 0.323505,0.7548 0.539174,1.5096 0.539174,2.3723 v 14.4499 h -4.097725 v -14.4499 c 0,-0.5391 -0.21567,-1.0783 -0.539175,-1.4018 -0.431339,-0.4314 -0.862679,-0.5392 -1.401853,-0.5392 -0.539174,0 -1.078349,0.2157 -1.401853,0.5392 -0.43134,0.4313 -0.539175,0.8627 -0.539175,1.4018 v 14.4499 h -4.097725 v -20.273 h 2.911541 v 0.6471 c 0.43134,-0.3236 0.970514,-0.4314 1.509689,-0.6471 0.323504,-0.2156 0.970514,-0.3235 1.509688,-0.3235 z"
       inkscape:connector-curvature="0"
       style="fill:#52651b;fill-opacity:1" />
    <path
       id="path1424"
       d="m 99.505185,1026.0438 c -0.539174,0 -1.078348,0.2157 -1.401853,0.5392 -0.431339,0.4313 -0.539174,0.8627 -0.539174,1.4018 v 8.0877 h 4.097722 v 4.0977 h -4.097722 v 12.1853 h -4.097726 v -24.2628 c 0,-0.8627 0.21567,-1.6175 0.539175,-2.3724 0.323504,-0.7548 0.754844,-1.4018 1.294018,-1.941 0.539175,-0.5392 1.186184,-0.9705 1.941028,-1.294 0.754844,-0.3235 1.509688,-0.5392 2.372367,-0.5392 0.86268,0 1.61752,0.2157 2.37237,0.5392 0.75484,0.3235 1.40185,0.7548 1.94103,1.294 0.53917,0.5392 0.97051,1.1862 1.29402,1.941 0.3235,0.7549 0.53917,1.5097 0.53917,2.3724 h -4.20556 c 0,-0.5392 -0.21567,-1.0784 -0.53918,-1.4019 -0.43133,-0.4313 -0.97051,-0.647 -1.509685,-0.647 z"
       inkscape:connector-curvature="0"
       style="fill:#52651b;fill-opacity:1" />
    <path
       id="path1426"
       d="m 118.05279,1032.1904 v 14.5577 c 0,0.8627 -0.21567,1.6175 -0.53918,2.3724 -0.3235,0.7548 -0.75484,1.4018 -1.29402,1.941 -0.53917,0.5392 -1.18618,0.9705 -1.94102,1.294 -0.75485,0.3235 -1.50969,0.5392 -2.37237,0.5392 -0.86268,0 -1.61753,-0.1078 -2.37237,-0.5392 -0.75484,-0.3235 -1.40185,-0.7548 -1.94103,-1.294 -0.53917,-0.5392 -0.97051,-1.1862 -1.29402,-1.941 -0.3235,-0.7549 -0.53917,-1.5097 -0.53917,-2.3724 v -14.5577 h 4.09772 v 14.5577 c 0,0.5392 0.21567,1.0784 0.53918,1.4019 0.43134,0.4313 0.86268,0.5391 1.40185,0.5391 0.53918,0 1.07835,-0.2156 1.40186,-0.5391 0.43134,-0.4314 0.53917,-0.8627 0.53917,-1.4019 v -14.5577 h 4.3134 z"
       inkscape:connector-curvature="0"
       style="fill:#52651b;fill-opacity:1" />
    <path
       id="path1428"
       d="m 127.97359,1031.9747 c 0.86268,0 1.61753,0.2157 2.37237,0.5392 0.75485,0.3235 1.40186,0.7549 1.94103,1.294 0.53917,0.5392 0.97051,1.1862 1.29402,1.9411 0.3235,0.7548 0.53917,1.5096 0.53917,2.3723 v 14.4499 h -4.09772 v -14.4499 c 0,-0.5391 -0.21567,-1.0783 -0.53918,-1.4018 -0.43134,-0.4314 -0.86268,-0.5392 -1.40185,-0.5392 -0.53917,0 -1.07835,0.2157 -1.40185,0.5392 -0.43134,0.4313 -0.53918,0.8627 -0.53918,1.4018 v 14.4499 h -4.09772 v -20.273 h 2.91154 v 0.6471 c 0.43134,-0.3236 0.97051,-0.4314 1.50969,-0.6471 0.43134,-0.2156 0.97051,-0.3235 1.50968,-0.3235 z"
       inkscape:connector-curvature="0"
       style="fill:#52651b;fill-opacity:1" />
    <path
       id="path1430"
       d="m 143.50182,1052.679 c -0.86268,0 -1.61753,-0.2156 -2.37237,-0.5391 -0.75484,-0.3235 -1.40185,-0.7549 -1.94103,-1.2941 -0.53917,-0.5391 -0.97051,-1.1861 -1.29402,-1.941 -0.3235,-0.7548 -0.53917,-1.5097 -0.53917,-2.3724 v -8.5189 c 0,-0.8627 0.21567,-1.6175 0.53917,-2.3724 0.32351,-0.7548 0.75485,-1.4018 1.29402,-1.941 0.53918,-0.5392 1.18619,-0.9705 1.94103,-1.294 0.75484,-0.3235 1.50969,-0.5392 2.37237,-0.5392 0.75484,0 1.40185,0.1078 2.04886,0.3235 v -8.3033 h 4.09773 v 28.3606 h -2.91155 v -0.4313 c -0.43134,0.3235 -0.97051,0.4313 -1.50968,0.647 -0.53918,0.1078 -1.07835,0.2156 -1.72536,0.2156 z m -1.94103,-6.1466 c 0,0.5392 0.21567,1.0784 0.53917,1.4019 0.43134,0.4313 0.86268,0.5392 1.40186,0.5392 0.53917,0 0.97051,-0.2157 1.40185,-0.5392 0.43134,-0.4313 0.64701,-0.8627 0.64701,-1.4019 v -8.5189 c 0,-0.5392 -0.21567,-1.0784 -0.64701,-1.4019 -0.43134,-0.4313 -0.86268,-0.5391 -1.40185,-0.5391 -0.53918,0 -1.07835,0.2156 -1.40186,0.5391 -0.43134,0.4314 -0.53917,0.8627 -0.53917,1.4019 v 8.5189 z"
       inkscape:connector-curvature="0"
       style="fill:#52651b;fill-opacity:1" />
    <circle
       id="circle1432"
       r="2"
       cy="529.29999"
       cx="392"
       sodipodi:cx="392"
       sodipodi:cy="529.29999"
       sodipodi:rx="2"
       sodipodi:ry="2"
       style="fill:#52651b;fill-opacity:1"
       d="m 394,529.29999 c 0,1.10457 -0.89543,2 -2,2 -1.10457,0 -2,-0.89543 -2,-2 0,-1.10457 0.89543,-2 2,-2 1.10457,0 2,0.89543 2,2 z"
       transform="matrix(1.0783488,0,0,1.0783488,-420.36677,455.48947)" />
    <circle
       id="circle1434"
       r="2"
       cy="551.20001"
       cx="407.89999"
       sodipodi:cx="407.89999"
       sodipodi:cy="551.20001"
       sodipodi:rx="2"
       sodipodi:ry="2"
       style="fill:#52651b;fill-opacity:1"
       d="m 409.89999,551.20001 c 0,1.10457 -0.89543,2 -2,2 -1.10457,0 -2,-0.89543 -2,-2 0,-1.10457 0.89543,-2 2,-2 1.10457,0 2,0.89543 2,2 z"
       transform="matrix(1.0783488,0,0,1.0783488,-420.36677,455.48947)" />
    <circle
       id="circle1436"
       r="2"
       cy="551.20001"
       cx="471.10001"
       sodipodi:cx="471.10001"
       sodipodi:cy="551.20001"
       sodipodi:rx="2"
       sodipodi:ry="2"
       style="fill:#52651b;fill-opacity:1"
       d="m 473.10001,551.20001 c 0,1.10457 -0.89543,2 -2,2 -1.10457,0 -2,-0.89543 -2,-2 0,-1.10457 0.89543,-2 2,-2 1.10457,0 2,0.89543 2,2 z"
       transform="matrix(1.0783488,0,0,1.0783488,-420.36677,455.48947)" />
  </g>
</svg>
