<?xml version="1.0" encoding="UTF-8" standalone="no"?>
<!-- Created with Inkscape (http://www.inkscape.org/) -->

<svg
   xmlns:dc="http://purl.org/dc/elements/1.1/"
   xmlns:cc="http://creativecommons.org/ns#"
   xmlns:rdf="http://www.w3.org/1999/02/22-rdf-syntax-ns#"
   xmlns:svg="http://www.w3.org/2000/svg"
   xmlns="http://www.w3.org/2000/svg"
   xmlns:xlink="http://www.w3.org/1999/xlink"
   xmlns:sodipodi="http://sodipodi.sourceforge.net/DTD/sodipodi-0.dtd"
   xmlns:inkscape="http://www.inkscape.org/namespaces/inkscape"
   width="241"
   height="71"
   id="svg4686"
   version="1.1"
   inkscape:version="0.48.4 r9939"
   sodipodi:docname="navbar-title.svg"
   inkscape:export-filename="/home/user/dev/if.then.fund/itfsite/static/branding/navbar-title.png"
   inkscape:export-xdpi="38.977489"
   inkscape:export-ydpi="38.977489">
  <defs
     id="defs4688">
    <linearGradient
       id="SVGID_12_"
       gradientUnits="userSpaceOnUse"
       x1="176.8598"
       y1="134.16789"
       x2="131.6992"
       y2="55.947399">
      <stop
         offset="9.507450e-02"
         style="stop-color:#D5D8DA"
         id="stop1349" />
      <stop
         offset="0.9342"
         style="stop-color:#FFFFFF"
         id="stop1351" />
    </linearGradient>
    <linearGradient
       id="SVGID_13_"
       gradientUnits="userSpaceOnUse"
       x1="189.4364"
       y1="132.02541"
       x2="141.366"
       y2="81.483398">
      <stop
         offset="0.5363"
         style="stop-color:#000000"
         id="stop1356" />
      <stop
         offset="0.6591"
         style="stop-color:#FFFFFF"
         id="stop1358" />
    </linearGradient>
    <clipPath
       id="SVGID_11_">
      <use
         height="1052.3622"
         width="744.09448"
         y="0"
         x="0"
         style="overflow:visible"
         xlink:href="#SVGID_10_"
         overflow="visible"
         id="use1306" />
    </clipPath>
    <linearGradient
       gradientTransform="matrix(0.6097774,0,0,0.6097774,-58.078005,959.48697)"
       id="SVGID_9_"
       gradientUnits="userSpaceOnUse"
       x1="157.2896"
       y1="97.982399"
       x2="85.556801"
       y2="28.9876">
      <stop
         offset="7.198250e-02"
         style="stop-color:#FFFFFF"
         id="stop1294" />
      <stop
         offset="0.2721"
         style="stop-color:#000000"
         id="stop1296" />
    </linearGradient>
  </defs>
  <sodipodi:namedview
     id="base"
     pagecolor="#ffffff"
     bordercolor="#666666"
     borderopacity="1.0"
     inkscape:pageopacity="0.0"
     inkscape:pageshadow="2"
     inkscape:zoom="3.959798"
     inkscape:cx="119.85548"
     inkscape:cy="18.856601"
     inkscape:document-units="px"
     inkscape:current-layer="layer1"
     showgrid="false"
     inkscape:window-width="1680"
     inkscape:window-height="1026"
     inkscape:window-x="1680"
     inkscape:window-y="24"
     inkscape:window-maximized="1" />
  <metadata
     id="metadata4691">
    <rdf:RDF>
      <cc:Work
         rdf:about="">
        <dc:format>image/svg+xml</dc:format>
        <dc:type
           rdf:resource="http://purl.org/dc/dcmitype/StillImage" />
        <dc:title></dc:title>
      </cc:Work>
    </rdf:RDF>
  </metadata>
  <g
     inkscape:label="Layer 1"
     inkscape:groupmode="layer"
     id="layer1"
     transform="translate(0,-981.3622)">
    <path
       id="path1412"
       d="M 88.897375,1011.8814 H 92.9951 v 20.273 h -4.097725 v -20.273 z"
       inkscape:connector-curvature="0"
       style="fill:#aec852;fill-opacity:1"
       inkscape:export-filename="/home/user/dev/if.then.fund/itfsite/static/branding/circle1436.png"
       inkscape:export-xdpi="38.977489"
       inkscape:export-ydpi="38.977489" />
    <path
       id="path1414"
       d="m 102.59241,1005.7348 c -0.53918,0 -1.07835,0.2157 -1.40186,0.5392 -0.43134,0.4313 -0.53917,0.8627 -0.53917,1.4018 v 8.0877 h 4.09772 v 4.0977 h -4.09772 v 12.1853 h -4.097729 v -24.2628 c 0,-0.8627 0.21567,-1.6176 0.539175,-2.3724 0.323504,-0.7548 0.754844,-1.4018 1.294018,-1.941 0.539175,-0.5392 1.186184,-0.9705 1.941026,-1.294 0.75485,-0.3235 1.50969,-0.5392 2.37237,-0.5392 0.86268,0 1.61752,0.2157 2.37237,0.5392 0.75484,0.3235 1.40185,0.7548 1.94102,1.294 0.53918,0.5392 0.97052,1.1862 1.29402,1.941 0.32351,0.7548 0.53918,1.5097 0.53918,2.3724 h -4.09773 c 0,-0.5392 -0.21567,-1.0784 -0.53917,-1.4019 -0.53918,-0.4313 -1.07835,-0.647 -1.61752,-0.647 z"
       inkscape:connector-curvature="0"
       style="fill:#aec852;fill-opacity:1"
       inkscape:export-filename="/home/user/dev/if.then.fund/itfsite/static/branding/circle1436.png"
       inkscape:export-xdpi="38.977489"
       inkscape:export-ydpi="38.977489" />
    <path
       id="path1416"
       d="m 123.51237,1015.8713 h -4.85257 v 16.1752 h -3.98989 v -16.1752 h -3.23504 v -4.0977 h 3.23504 v -8.0877 h 4.09773 v 8.0877 h 4.85257 v 4.0977 z"
       inkscape:connector-curvature="0"
       style="fill:#aec852;fill-opacity:1"
       inkscape:export-filename="/home/user/dev/if.then.fund/itfsite/static/branding/circle1436.png"
       inkscape:export-xdpi="38.977489"
       inkscape:export-ydpi="38.977489" />
    <path
       id="path1418"
       d="m 132.03133,1011.6657 c 0.86268,0 1.61752,0.2157 2.37237,0.5392 0.75484,0.3235 1.40185,0.7548 1.94102,1.294 0.53918,0.5392 0.97052,1.1862 1.29402,1.941 0.32351,0.7549 0.53918,1.5097 0.53918,2.3724 v 14.4499 h -4.09773 v -14.4499 c 0,-0.5392 -0.21567,-1.0783 -0.53917,-1.4018 -0.43134,-0.4314 -0.86268,-0.5392 -1.40186,-0.5392 -0.53917,0 -1.07835,0.2157 -1.40185,0.5392 -0.43134,0.4313 -0.53917,0.8626 -0.53917,1.4018 v 14.4499 h -4.09773 v -28.3606 h 4.09773 v 8.3033 c 0.53917,-0.4313 1.18618,-0.5392 1.83319,-0.5392 z"
       inkscape:connector-curvature="0"
       style="fill:#aec852;fill-opacity:1"
       inkscape:export-filename="/home/user/dev/if.then.fund/itfsite/static/branding/circle1436.png"
       inkscape:export-xdpi="38.977489"
       inkscape:export-ydpi="38.977489" />
    <path
       id="path1420"
       d="m 148.09873,1028.2723 c 0.53917,0 1.07834,-0.2157 1.40185,-0.5392 0.43134,-0.4313 0.53917,-0.8627 0.53917,-1.4018 h 4.09773 c 0,0.8627 -0.21567,1.6175 -0.53918,2.3723 -0.3235,0.7549 -0.75484,1.4019 -1.29401,1.9411 -0.53918,0.5391 -1.18619,0.9705 -1.94103,1.294 -0.75485,0.3235 -1.50969,0.5392 -2.37237,0.5392 -0.86268,0 -1.61752,-0.2157 -2.37237,-0.5392 -0.75484,-0.3235 -1.40185,-0.7549 -1.94102,-1.294 -0.53918,-0.5392 -0.97052,-1.1862 -1.29402,-1.9411 -0.32351,-0.7548 -0.53918,-1.5096 -0.53918,-2.3723 v -8.519 c 0,-0.8627 0.21567,-1.6175 0.53918,-2.3724 0.3235,-0.7548 0.75484,-1.4018 1.29402,-1.941 0.53917,-0.5392 1.18618,-0.9705 1.94102,-1.294 0.75485,-0.3235 1.50969,-0.5392 2.37237,-0.5392 0.86268,0 1.61752,0.2157 2.37237,0.5392 0.75484,0.3235 1.40185,0.7548 1.94103,1.294 0.53917,0.5392 0.97051,1.1862 1.29401,1.941 0.32351,0.7549 0.53918,1.5097 0.53918,2.3724 v 5.0683 h -8.08762 v 3.4507 c 0,0.5391 0.21567,1.0783 0.53918,1.4018 0.43134,0.3235 0.97051,0.5392 1.50969,0.5392 z m -2.04887,-8.519 h 4.09773 v -2.0488 c 0,-0.5392 -0.21567,-1.0784 -0.53918,-1.4019 -0.43134,-0.4313 -0.86267,-0.5391 -1.40185,-0.5391 -0.53917,0 -1.07835,0.2156 -1.40185,0.5391 -0.43134,0.4314 -0.53918,0.8627 -0.53918,1.4019 v 2.0488 z"
       inkscape:connector-curvature="0"
       style="fill:#aec852;fill-opacity:1"
       inkscape:export-filename="/home/user/dev/if.then.fund/itfsite/static/branding/circle1436.png"
       inkscape:export-xdpi="38.977489"
       inkscape:export-ydpi="38.977489" />
    <path
       id="path1422"
       d="m 164.16612,1011.6657 c 0.86268,0 1.61753,0.2157 2.37237,0.5392 0.75484,0.3235 1.40185,0.7548 1.94103,1.294 0.53917,0.5392 0.97051,1.1862 1.29402,1.941 0.3235,0.7549 0.53917,1.5097 0.53917,2.3724 v 14.4499 h -4.09772 v -14.4499 c 0,-0.5392 -0.21567,-1.0783 -0.53918,-1.4018 -0.43134,-0.4314 -0.86268,-0.5392 -1.40185,-0.5392 -0.53918,0 -1.07835,0.2157 -1.40186,0.5392 -0.43133,0.4313 -0.53917,0.8626 -0.53917,1.4018 v 14.4499 h -4.09773 v -20.273 h 2.91155 v 0.647 c 0.43134,-0.3235 0.97051,-0.4313 1.50968,-0.647 0.32351,-0.2156 0.97052,-0.3235 1.50969,-0.3235 z"
       inkscape:connector-curvature="0"
       style="fill:#aec852;fill-opacity:1"
       inkscape:export-filename="/home/user/dev/if.then.fund/itfsite/static/branding/circle1436.png"
       inkscape:export-xdpi="38.977489"
       inkscape:export-ydpi="38.977489" />
    <path
       id="path1424"
       d="m 188.10547,1005.7348 c -0.53918,0 -1.07835,0.2157 -1.40186,0.5392 -0.43134,0.4313 -0.53917,0.8627 -0.53917,1.4018 v 8.0877 h 4.09772 v 4.0977 h -4.09772 v 12.1853 h -4.09773 v -24.2628 c 0,-0.8627 0.21567,-1.6176 0.53918,-2.3724 0.3235,-0.7548 0.75484,-1.4018 1.29402,-1.941 0.53917,-0.5392 1.18618,-0.9705 1.94102,-1.294 0.75485,-0.3235 1.50969,-0.5392 2.37237,-0.5392 0.86268,0 1.61752,0.2157 2.37237,0.5392 0.75484,0.3235 1.40185,0.7548 1.94103,1.294 0.53917,0.5392 0.97051,1.1862 1.29402,1.941 0.3235,0.7548 0.53917,1.5097 0.53917,2.3724 h -4.20556 c 0,-0.5392 -0.21567,-1.0784 -0.53918,-1.4019 -0.43133,-0.4313 -0.97051,-0.647 -1.50968,-0.647 z"
       inkscape:connector-curvature="0"
       style="fill:#aec852;fill-opacity:1"
       inkscape:export-filename="/home/user/dev/if.then.fund/itfsite/static/branding/circle1436.png"
       inkscape:export-xdpi="38.977489"
       inkscape:export-ydpi="38.977489" />
    <path
       id="path1426"
       d="m 206.65307,1011.8814 v 14.5577 c 0,0.8627 -0.21567,1.6175 -0.53918,2.3724 -0.3235,0.7548 -0.75484,1.4018 -1.29402,1.941 -0.53917,0.5392 -1.18618,0.9705 -1.94102,1.294 -0.75485,0.3235 -1.50969,0.5392 -2.37237,0.5392 -0.86268,0 -1.61753,-0.1078 -2.37237,-0.5392 -0.75484,-0.3235 -1.40185,-0.7548 -1.94103,-1.294 -0.53917,-0.5392 -0.97051,-1.1862 -1.29402,-1.941 -0.3235,-0.7549 -0.53917,-1.5097 -0.53917,-2.3724 v -14.5577 h 4.09772 v 14.5577 c 0,0.5392 0.21567,1.0784 0.53918,1.4019 0.43134,0.4313 0.86268,0.5391 1.40185,0.5391 0.53918,0 1.07835,-0.2156 1.40186,-0.5391 0.43134,-0.4314 0.53917,-0.8627 0.53917,-1.4019 v -14.5577 h 4.3134 z"
       inkscape:connector-curvature="0"
       style="fill:#aec852;fill-opacity:1"
       inkscape:export-filename="/home/user/dev/if.then.fund/itfsite/static/branding/circle1436.png"
       inkscape:export-xdpi="38.977489"
       inkscape:export-ydpi="38.977489" />
    <path
       id="path1428"
       d="m 216.57387,1011.6657 c 0.86268,0 1.61753,0.2157 2.37237,0.5392 0.75485,0.3235 1.40186,0.7548 1.94103,1.294 0.53917,0.5392 0.97051,1.1862 1.29402,1.941 0.3235,0.7549 0.53917,1.5097 0.53917,2.3724 v 14.4499 h -4.09772 v -14.4499 c 0,-0.5392 -0.21567,-1.0783 -0.53918,-1.4018 -0.43134,-0.4314 -0.86268,-0.5392 -1.40185,-0.5392 -0.53917,0 -1.07835,0.2157 -1.40185,0.5392 -0.43134,0.4313 -0.53918,0.8626 -0.53918,1.4018 v 14.4499 h -4.09772 v -20.273 h 2.91154 v 0.647 c 0.43134,-0.3235 0.97051,-0.4313 1.50969,-0.647 0.43134,-0.2156 0.97051,-0.3235 1.50968,-0.3235 z"
       inkscape:connector-curvature="0"
       style="fill:#aec852;fill-opacity:1"
       inkscape:export-filename="/home/user/dev/if.then.fund/itfsite/static/branding/circle1436.png"
       inkscape:export-xdpi="38.977489"
       inkscape:export-ydpi="38.977489" />
    <path
       id="path1430"
       d="m 232.1021,1032.37 c -0.86268,0 -1.61753,-0.2156 -2.37237,-0.5391 -0.75484,-0.3236 -1.40185,-0.7549 -1.94103,-1.2941 -0.53917,-0.5391 -0.97051,-1.1862 -1.29402,-1.941 -0.3235,-0.7548 -0.53917,-1.5097 -0.53917,-2.3724 v -8.5189 c 0,-0.8627 0.21567,-1.6175 0.53917,-2.3724 0.32351,-0.7548 0.75485,-1.4018 1.29402,-1.941 0.53918,-0.5392 1.18619,-0.9705 1.94103,-1.294 0.75484,-0.3235 1.50969,-0.5392 2.37237,-0.5392 0.75484,0 1.40185,0.1078 2.04886,0.3235 v -8.3033 h 4.09773 v 28.3606 h -2.91155 v -0.4314 c -0.43134,0.3236 -0.97051,0.4314 -1.50968,0.6471 -0.53918,0.1078 -1.07835,0.2156 -1.72536,0.2156 z m -1.94103,-6.1466 c 0,0.5392 0.21567,1.0784 0.53917,1.4019 0.43134,0.4313 0.86268,0.5392 1.40186,0.5392 0.53917,0 0.97051,-0.2157 1.40185,-0.5392 0.43134,-0.4313 0.64701,-0.8627 0.64701,-1.4019 v -8.5189 c 0,-0.5392 -0.21567,-1.0784 -0.64701,-1.4019 -0.43134,-0.4313 -0.86268,-0.5391 -1.40185,-0.5391 -0.53918,0 -1.07835,0.2156 -1.40186,0.5391 -0.43134,0.4314 -0.53917,0.8627 -0.53917,1.4019 v 8.5189 z"
       inkscape:connector-curvature="0"
       style="fill:#aec852;fill-opacity:1"
       inkscape:export-filename="/home/user/dev/if.then.fund/itfsite/static/branding/circle1436.png"
       inkscape:export-xdpi="38.977489"
       inkscape:export-ydpi="38.977489" />
    <circle
       id="circle1432"
       r="2"
       cy="529.29999"
       cx="392"
       sodipodi:cx="392"
       sodipodi:cy="529.29999"
       sodipodi:rx="2"
       sodipodi:ry="2"
       style="fill:#aec852;fill-opacity:1"
       d="m 394,529.29999 c 0,1.10457 -0.89543,2 -2,2 -1.10457,0 -2,-0.89543 -2,-2 0,-1.10457 0.89543,-2 2,-2 1.10457,0 2,0.89543 2,2 z"
       transform="matrix(1.0783488,0,0,1.0783488,-331.76649,435.18046)"
       inkscape:export-filename="/home/user/dev/if.then.fund/itfsite/static/branding/circle1436.png"
       inkscape:export-xdpi="38.977489"
       inkscape:export-ydpi="38.977489" />
    <circle
       id="circle1434"
       r="2"
       cy="551.20001"
       cx="407.89999"
       sodipodi:cx="407.89999"
       sodipodi:cy="551.20001"
       sodipodi:rx="2"
       sodipodi:ry="2"
       style="fill:#aec852;fill-opacity:1"
       d="m 409.89999,551.20001 c 0,1.10457 -0.89543,2 -2,2 -1.10457,0 -2,-0.89543 -2,-2 0,-1.10457 0.89543,-2 2,-2 1.10457,0 2,0.89543 2,2 z"
       transform="matrix(1.0783488,0,0,1.0783488,-331.76649,435.18046)"
       inkscape:export-filename="/home/user/dev/if.then.fund/itfsite/static/branding/circle1436.png"
       inkscape:export-xdpi="38.977489"
       inkscape:export-ydpi="38.977489" />
    <circle
       id="circle1436"
       r="2"
       cy="551.20001"
       cx="471.10001"
       sodipodi:cx="471.10001"
       sodipodi:cy="551.20001"
       sodipodi:rx="2"
       sodipodi:ry="2"
       style="fill:#aec852;fill-opacity:1"
       d="m 473.10001,551.20001 c 0,1.10457 -0.89543,2 -2,2 -1.10457,0 -2,-0.89543 -2,-2 0,-1.10457 0.89543,-2 2,-2 1.10457,0 2,0.89543 2,2 z"
       transform="matrix(1.0783488,0,0,1.0783488,-331.76649,435.18046)"
       inkscape:export-xdpi="38.977489"
       inkscape:export-ydpi="38.977489" />
    <path
       style="fill:#80a638"
       inkscape:connector-curvature="0"
       d="m 36.010659,983.20735 c -18.90311,0 -34.2694865,15.3663 -34.2694865,34.26965 0,18.903 15.3663765,34.2693 34.2694865,34.2693 18.903097,0 34.269488,-15.3663 34.269488,-34.2693 0,-18.90335 -15.366391,-34.26965 -34.269488,-34.26965 z m 0,61.77055 c -15.183467,0 -27.5619455,-12.3176 -27.5619455,-27.562 0,-15.1835 12.3175015,-27.56185 27.5619455,-27.56185 15.183454,0 27.561935,12.31755 27.561935,27.56185 -0.06098,15.2444 -12.378481,27.562 -27.561935,27.562 z"
       id="path1291" />
    <path
       style="opacity:0.2;fill:url(#SVGID_9_)"
       inkscape:connector-curvature="0"
       d="m 1.6801955,1017.477 c 0,-18.90335 15.3663775,-34.26965 34.2694855,-34.26965 9.512525,0 18.110388,3.9027 24.330116,10.1224 l 0.487821,-0.488 c -6.341682,-6.4025 -15.122478,-10.3662 -24.817937,-10.3662 -19.329944,0 -35.00122553,15.7324 -35.00122553,35.00145 0,9.6954 3.96354703,18.4763 10.36622453,24.8177 l 0.487814,-0.4878 C 5.5827675,1035.5875 1.6801955,1026.9894 1.6801955,1017.477 z"
       id="path1298" />
    <g
       transform="matrix(0.6097774,0,0,0.6097774,-58.078005,959.48697)"
       style="opacity:0.3"
       id="g1300">
      <defs
         id="defs1302">
        <path
           style="opacity:0.3"
           inkscape:connector-curvature="0"
           id="SVGID_10_"
           d="m 154.3,38.9 c -31,0 -56.2,25.2 -56.2,56.2 0,31 25.2,56.2 56.2,56.2 31,0 56.2,-25.2 56.2,-56.2 0,-31.1 -25.2,-56.2 -56.2,-56.2 z m 0,101.3 c -24.9,0 -45.2,-20.2 -45.2,-45.2 0,-24.9 20.2,-45.2 45.2,-45.2 24.9,0 45.2,20.2 45.2,45.2 -0.1,25 -20.3,45.2 -45.2,45.2 z" />
      </defs>
      <clipPath
         id="clipPath4688">
        <use
           height="1052.3622"
           width="744.09448"
           y="0"
           x="0"
           style="overflow:visible"
           xlink:href="#SVGID_10_"
           overflow="visible"
           id="use4690" />
      </clipPath>
      <g
         clip-path="url(#SVGID_11_)"
         id="g1308">
        <path
           inkscape:connector-curvature="0"
           d="m 154.3,140.2 c -24.9,0 -45.2,-20.2 -45.2,-45.2 0,-24.9 20.2,-45.2 45.2,-45.2 24.9,0 45.2,20.2 45.2,45.2 -0.1,25 -20.3,45.2 -45.2,45.2 z m 0,-101.3 c -31,0 -56.2,25.2 -56.2,56.2 0,31 25.2,56.2 56.2,56.2 31,0 56.2,-25.2 56.2,-56.2 0,-31.1 -25.2,-56.2 -56.2,-56.2 z"
           id="path1310" />
        <path
           style="fill:#0f0f0f"
           inkscape:connector-curvature="0"
           d="m 154.7,140.6 c -24.9,0 -45.2,-20.2 -45.2,-45.2 0,-24.9 20.2,-45.2 45.2,-45.2 24.9,0 45.2,20.2 45.2,45.2 0,25 -20.3,45.2 -45.2,45.2 z m 0,-101.3 c -31,0 -56.2,25.2 -56.2,56.2 0,31 25.2,56.2 56.2,56.2 31,0 56.2,-25.2 56.2,-56.2 0,-31.1 -25.2,-56.2 -56.2,-56.2 z"
           id="path1312" />
        <path
           style="fill:#1e1e1e"
           inkscape:connector-curvature="0"
           d="m 155.1,141.1 c -24.9,0 -45.2,-20.2 -45.2,-45.2 0,-24.9 20.2,-45.2 45.2,-45.2 24.9,0 45.2,20.2 45.2,45.2 0,24.9 -20.2,45.2 -45.2,45.2 z m 0,-101.4 c -31,0 -56.2,25.2 -56.2,56.2 0,31 25.2,56.2 56.2,56.2 31,0 56.2,-25.2 56.2,-56.2 0,-31 -25.1,-56.2 -56.2,-56.2 z"
           id="path1314" />
        <path
           style="fill:#2d2d2d"
           inkscape:connector-curvature="0"
           d="m 155.6,141.5 c -24.9,0 -45.2,-20.2 -45.2,-45.2 0,-24.9 20.2,-45.2 45.2,-45.2 24.9,0 45.2,20.2 45.2,45.2 -0.1,25 -20.3,45.2 -45.2,45.2 z m 0,-101.4 c -31,0 -56.2,25.2 -56.2,56.2 0,31 25.2,56.2 56.2,56.2 31,0 56.2,-25.2 56.2,-56.2 0,-31 -25.2,-56.2 -56.2,-56.2 z"
           id="path1316" />
        <path
           style="fill:#3c3c3c"
           inkscape:connector-curvature="0"
           d="m 156,141.9 c -24.9,0 -45.2,-20.2 -45.2,-45.2 0,-24.9 20.2,-45.2 45.2,-45.2 24.9,0 45.2,20.2 45.2,45.2 -0.1,25 -20.3,45.2 -45.2,45.2 z m 0,-101.3 c -31,0 -56.2,25.2 -56.2,56.2 0,31 25.2,56.2 56.2,56.2 31,0 56.2,-25.2 56.2,-56.2 C 212.2,65.7 187,40.6 156,40.6 z"
           id="path1318" />
        <path
           style="fill:#4b4b4b"
           inkscape:connector-curvature="0"
           d="m 156.4,142.3 c -24.9,0 -45.2,-20.2 -45.2,-45.2 0,-24.9 20.2,-45.2 45.2,-45.2 24.9,0 45.2,20.2 45.2,45.2 0,25 -20.2,45.2 -45.2,45.2 z m 0,-101.3 c -31,0 -56.2,25.2 -56.2,56.2 0,31 25.2,56.2 56.2,56.2 31,0 56.2,-25.2 56.2,-56.2 0,-31 -25.1,-56.2 -56.2,-56.2 z"
           id="path1320" />
        <path
           style="fill:#5a5a5a"
           inkscape:connector-curvature="0"
           d="m 156.8,142.8 c -24.9,0 -45.2,-20.2 -45.2,-45.2 0,-24.9 20.2,-45.2 45.2,-45.2 24.9,0 45.2,20.2 45.2,45.2 0,25 -20.2,45.2 -45.2,45.2 z m 0,-101.4 c -31,0 -56.2,25.2 -56.2,56.2 0,31 25.2,56.2 56.2,56.2 31,0 56.2,-25.2 56.2,-56.2 0,-31 -25.1,-56.2 -56.2,-56.2 z"
           id="path1322" />
        <path
           style="fill:#696969"
           inkscape:connector-curvature="0"
           d="m 157.3,143.2 c -24.9,0 -45.2,-20.2 -45.2,-45.2 0,-24.9 20.2,-45.2 45.2,-45.2 24.9,0 45.2,20.2 45.2,45.2 -0.1,25 -20.3,45.2 -45.2,45.2 z m 0,-101.4 c -31,0 -56.2,25.2 -56.2,56.2 0,31 25.2,56.2 56.2,56.2 31,0 56.2,-25.2 56.2,-56.2 0,-31 -25.2,-56.2 -56.2,-56.2 z"
           id="path1324" />
        <path
           style="fill:#787878"
           inkscape:connector-curvature="0"
           d="m 157.7,143.6 c -24.9,0 -45.2,-20.2 -45.2,-45.2 0,-24.9 20.2,-45.2 45.2,-45.2 24.9,0 45.2,20.2 45.2,45.2 0,25 -20.3,45.2 -45.2,45.2 z m 0,-101.3 c -31,0 -56.2,25.2 -56.2,56.2 0,31 25.2,56.2 56.2,56.2 31,0 56.2,-25.2 56.2,-56.2 0,-31.1 -25.2,-56.2 -56.2,-56.2 z"
           id="path1326" />
        <path
           style="fill:#878787"
           inkscape:connector-curvature="0"
           d="m 158.1,144.1 c -24.9,0 -45.2,-20.2 -45.2,-45.2 0,-24.9 20.2,-45.2 45.2,-45.2 24.9,0 45.2,20.2 45.2,45.2 0,24.9 -20.2,45.2 -45.2,45.2 z m 0,-101.4 c -31,0 -56.2,25.2 -56.2,56.2 0,31 25.2,56.2 56.2,56.2 31,0 56.2,-25.2 56.2,-56.2 0,-31 -25.1,-56.2 -56.2,-56.2 z"
           id="path1328" />
        <path
           style="fill:#969696"
           inkscape:connector-curvature="0"
           d="m 158.6,144.5 c -24.9,0 -45.2,-20.2 -45.2,-45.2 0,-24.9 20.2,-45.2 45.2,-45.2 24.9,0 45.2,20.2 45.2,45.2 -0.1,25 -20.3,45.2 -45.2,45.2 z m 0,-101.4 c -31,0 -56.2,25.2 -56.2,56.2 0,31 25.2,56.2 56.2,56.2 31,0 56.2,-25.2 56.2,-56.2 0,-31 -25.2,-56.2 -56.2,-56.2 z"
           id="path1330" />
        <path
           style="fill:#a5a5a5"
           inkscape:connector-curvature="0"
           d="m 159,144.9 c -24.9,0 -45.2,-20.2 -45.2,-45.2 0,-24.9 20.2,-45.2 45.2,-45.2 24.9,0 45.2,20.2 45.2,45.2 -0.1,25 -20.3,45.2 -45.2,45.2 z m 0,-101.3 c -31,0 -56.2,25.2 -56.2,56.2 0,31 25.2,56.2 56.2,56.2 31,0 56.2,-25.2 56.2,-56.2 C 215.2,68.7 190,43.6 159,43.6 z"
           id="path1332" />
        <path
           style="fill:#b4b4b4"
           inkscape:connector-curvature="0"
           d="m 159.4,145.3 c -24.9,0 -45.2,-20.2 -45.2,-45.2 0,-24.9 20.2,-45.2 45.2,-45.2 24.9,0 45.2,20.2 45.2,45.2 0,25 -20.3,45.2 -45.2,45.2 z m 0,-101.3 c -31,0 -56.2,25.2 -56.2,56.2 0,31 25.2,56.2 56.2,56.2 31,0 56.2,-25.2 56.2,-56.2 C 215.6,69.1 190.4,44 159.4,44 z"
           id="path1334" />
        <path
           style="fill:#c3c3c3"
           inkscape:connector-curvature="0"
           d="m 159.8,145.8 c -24.9,0 -45.2,-20.2 -45.2,-45.2 0,-24.9 20.2,-45.2 45.2,-45.2 24.9,0 45.2,20.2 45.2,45.2 0,25 -20.2,45.2 -45.2,45.2 z m 0,-101.4 c -31,0 -56.2,25.2 -56.2,56.2 0,31 25.2,56.2 56.2,56.2 31,0 56.2,-25.2 56.2,-56.2 0,-31 -25.1,-56.2 -56.2,-56.2 z"
           id="path1336" />
        <path
           style="fill:#d2d2d2"
           inkscape:connector-curvature="0"
           d="m 160.3,146.2 c -24.9,0 -45.2,-20.2 -45.2,-45.2 0,-24.9 20.2,-45.2 45.2,-45.2 24.9,0 45.2,20.2 45.2,45.2 -0.1,25 -20.3,45.2 -45.2,45.2 z m 0,-101.4 c -31,0 -56.2,25.2 -56.2,56.2 0,31 25.2,56.2 56.2,56.2 31,0 56.2,-25.2 56.2,-56.2 0,-31 -25.2,-56.2 -56.2,-56.2 z"
           id="path1338" />
        <path
           style="fill:#e1e1e1"
           inkscape:connector-curvature="0"
           d="m 160.7,146.6 c -24.9,0 -45.2,-20.2 -45.2,-45.2 0,-24.9 20.2,-45.2 45.2,-45.2 24.9,0 45.2,20.2 45.2,45.2 -0.1,25 -20.3,45.2 -45.2,45.2 z m 0,-101.3 c -31,0 -56.2,25.2 -56.2,56.2 0,31 25.2,56.2 56.2,56.2 31,0 56.2,-25.2 56.2,-56.2 0,-31.1 -25.2,-56.2 -56.2,-56.2 z"
           id="path1340" />
        <path
           style="fill:#f0f0f0"
           inkscape:connector-curvature="0"
           d="m 161.1,147.1 c -24.9,0 -45.2,-20.2 -45.2,-45.2 0,-24.9 20.2,-45.2 45.2,-45.2 24.9,0 45.2,20.2 45.2,45.2 0,24.9 -20.2,45.2 -45.2,45.2 z m 0,-101.4 c -31,0 -56.2,25.2 -56.2,56.2 0,31 25.2,56.2 56.2,56.2 31,0 56.2,-25.2 56.2,-56.2 0,-31 -25.1,-56.2 -56.2,-56.2 z"
           id="path1342" />
        <path
           style="fill:#ffffff"
           inkscape:connector-curvature="0"
           d="m 161.5,147.5 c -24.9,0 -45.2,-20.2 -45.2,-45.2 0,-24.9 20.2,-45.2 45.2,-45.2 24.9,0 45.2,20.2 45.2,45.2 0,25 -20.2,45.2 -45.2,45.2 z m 0,-101.4 c -31,0 -56.2,25.2 -56.2,56.2 0,31 25.2,56.2 56.2,56.2 31,0 56.2,-25.2 56.2,-56.2 0,-31 -25.1,-56.2 -56.2,-56.2 z"
           id="path1344" />
      </g>
    </g>
    <g
       transform="matrix(0.6097774,0,0,0.6097774,-58.078005,959.48697)"
       id="g1346">
      <linearGradient
         id="linearGradient4712"
         gradientUnits="userSpaceOnUse"
         x1="176.8598"
         y1="134.16789"
         x2="131.6992"
         y2="55.947399">
        <stop
           offset="9.507450e-02"
           style="stop-color:#D5D8DA"
           id="stop4714" />
        <stop
           offset="0.9342"
           style="stop-color:#FFFFFF"
           id="stop4716" />
      </linearGradient>
      <circle
         d="M 199.5,95.099998 C 199.5,120.06327 179.26327,140.3 154.3,140.3 c -24.96327,0 -45.2,-20.23673 -45.2,-45.200002 0,-24.963271 20.23673,-45.2 45.2,-45.2 24.96327,0 45.2,20.236729 45.2,45.2 z"
         style="fill:url(#SVGID_12_)"
         sodipodi:ry="45.200001"
         sodipodi:rx="45.200001"
         sodipodi:cy="95.099998"
         sodipodi:cx="154.3"
         cx="154.3"
         cy="95.099998"
         r="45.200001"
         id="circle1353" />
      <linearGradient
         id="linearGradient4719"
         gradientUnits="userSpaceOnUse"
         x1="189.4364"
         y1="132.02541"
         x2="141.366"
         y2="81.483398">
        <stop
           offset="0.5363"
           style="stop-color:#000000"
           id="stop4721" />
        <stop
           offset="0.6591"
           style="stop-color:#FFFFFF"
           id="stop4723" />
      </linearGradient>
      <path
         style="opacity:0.2;fill:url(#SVGID_13_)"
         inkscape:connector-curvature="0"
         d="m 199.4,95.1 c 0,-12.4 -5,-23.6 -13.1,-31.8 l -0.9,0.9 c 7.9,7.9 12.7,18.9 12.7,30.9 0,24.2 -19.7,43.9 -43.9,43.9 -12,0 -22.9,-4.9 -30.9,-12.7 l -0.9,0.9 c 8.2,8.1 19.4,13.1 31.8,13.1 25,-0.1 45.2,-20.3 45.2,-45.2 z"
         id="path1360" />
    </g>
    <circle
       transform="matrix(0.6097774,0,0,0.6097774,-58.078005,959.48697)"
       style="fill:#637d24"
       sodipodi:ry="3.3"
       sodipodi:rx="3.3"
       sodipodi:cy="114.5"
       sodipodi:cx="144.39999"
       cx="144.39999"
       cy="114.5"
       r="3.3"
       id="circle1362"
       d="m 147.69999,114.5 c 0,1.82254 -1.47746,3.3 -3.3,3.3 -1.82254,0 -3.3,-1.47746 -3.3,-3.3 0,-1.82254 1.47746,-3.3 3.3,-3.3 1.82254,0 3.3,1.47746 3.3,3.3 z" />
    <path
       id="path1370"
       d="m 48.450115,1007.9643 c -0.548801,0 -1.036624,0.1824 -1.402488,0.5489 -0.365867,0.3659 -0.5488,0.8538 -0.5488,1.4025 v 5.1831 h 3.963553 v 3.9637 h -3.963553 v 6.7073 H 42.53527 v -15.8541 c 0,-0.7929 0.182855,-1.5854 0.487832,-2.3173 0.304883,-0.7316 0.731723,-1.3415 1.280531,-1.8903 0.548795,-0.5487 1.158572,-0.9756 1.890304,-1.2804 0.731733,-0.305 1.463466,-0.4878 2.317155,-0.4878 0.79271,0 1.585421,0.1822 2.317152,0.4878 0.731734,0.3048 1.341512,0.7317 1.890312,1.2804 0.548801,0.5488 0.975644,1.1587 1.280535,1.8903 0.304886,0.7319 0.487819,1.4635 0.487819,2.3173 h -3.963552 c 0,-0.5487 -0.182932,-1.0366 -0.548801,-1.4025 -0.487822,-0.3658 -0.975645,-0.5489 -1.524442,-0.5489 z"
       inkscape:connector-curvature="0"
       style="fill:#465d28;fill-opacity:1" />
    <circle
       id="circle1372"
       r="3.3"
       cy="114.5"
       cx="168.2"
       sodipodi:cx="168.2"
       sodipodi:cy="114.5"
       sodipodi:rx="3.3"
       sodipodi:ry="3.3"
       style="fill:#40622f"
       d="m 171.5,114.5 c 0,1.82254 -1.47746,3.3 -3.3,3.3 -1.82254,0 -3.3,-1.47746 -3.3,-3.3 0,-1.82254 1.47746,-3.3 3.3,-3.3 1.82254,0 3.3,1.47746 3.3,3.3 z"
       transform="matrix(0.6097774,0,0,0.6097774,-58.078005,959.48697)" />
    <path
       style="fill:#566a1c"
       inkscape:connector-curvature="0"
       d="m 40.157137,1027.7212 c 0,0 -3.292786,0.6708 -3.292786,-2.3173 v -6.4024 h 2.743995 v -3.9639 h -2.743995 v -9.8171 h -3.963566 v 9.8783 h -2.43911 v 3.9637 h 2.43911 v 6.4025 c 0,0.7926 0.183043,1.5854 0.487833,2.3172 0.304884,0.7315 0.731721,1.3414 1.280532,1.8903 0.548791,0.5487 1.158578,0.9756 1.8903,1.2803 0.73174,0.3051 1.46348,0.4879 2.317155,0.4879 0.182857,0 1.158578,0 1.341509,0 v -3.7195 z"
       id="path1374" />
    <circle
       id="circle1378"
       r="3.3"
       cy="76.300003"
       cx="131.3"
       sodipodi:cx="131.3"
       sodipodi:cy="76.300003"
       sodipodi:rx="3.3"
       sodipodi:ry="3.3"
       style="fill:#96ad43"
       d="m 134.6,76.300003 c 0,1.82254 -1.47746,3.3 -3.3,3.3 -1.82254,0 -3.3,-1.47746 -3.3,-3.3 0,-1.82254 1.47746,-3.3 3.3,-3.3 1.82254,0 3.3,1.47746 3.3,3.3 z"
       transform="matrix(0.6097774,0,0,0.6097774,-58.078005,959.48697)" />
    <path
       id="path1380"
       d="m 26.49812,1027.2942 c -0.182933,0.061 -0.365866,0.061 -0.548799,0.061 -0.5488,0 -1.036622,-0.1829 -1.402488,-0.5488 -0.365867,-0.3659 -0.5488,-0.8537 -0.5488,-1.4025 v -15.9152 H 20.03448 v 15.9152 c 0,0.7927 0.182933,1.5854 0.487822,2.3172 0.304889,0.7317 0.731733,1.3415 1.280532,1.8903 0.5488,0.5488 1.158577,0.9756 1.89031,1.2805 0.731733,0.3049 1.463466,0.4878 2.317154,0.4878 0.182934,0 0.365867,0 0.5488,0 v -4.0855 z"
       inkscape:connector-curvature="0"
       style="fill:#7b8e28" />
  </g>
</svg>
