<?xml version="1.0" standalone="no"?>
<!DOCTYPE svg PUBLIC "-//W3C//DTD SVG 20010904//EN"
 "http://www.w3.org/TR/2001/REC-SVG-20010904/DTD/svg10.dtd">
<svg version="1.0" xmlns="http://www.w3.org/2000/svg"
 width="500.000000pt" height="500.000000pt" viewBox="0 0 500.000000 500.000000"
 preserveAspectRatio="xMidYMid meet">
<metadata>
Created by potrace 1.11, written by Peter Selinger 2001-2013
</metadata>
<g transform="translate(0.000000,500.000000) scale(0.100000,-0.100000)"
fill="#000000" stroke="none">
<path d="M2325 4939 c-579 -47 -1132 -305 -1545 -718 -130 -131 -209 -227
-317 -389 -237 -354 -378 -782 -402 -1213 -25 -443 55 -839 249 -1234 244
-497 626 -879 1125 -1125 252 -124 519 -204 805 -242 139 -18 470 -15 615 6
544 77 1005 303 1399 685 370 360 618 830 706 1341 135 775 -111 1575 -660
2144 -377 391 -875 648 -1410 726 -157 23 -415 32 -565 19z m535 -503 c107
-20 223 -50 320 -82 107 -36 339 -152 445 -222 482 -321 803 -842 875 -1422
15 -124 12 -382 -6 -511 -110 -793 -696 -1450 -1469 -1649 -306 -79 -675 -81
-976 -4 -577 145 -1053 530 -1309 1059 -135 278 -200 561 -200 870 0 991 731
1830 1717 1970 130 19 485 13 603 -9z"/>
<path d="M2041 3334 c-116 -31 -202 -100 -253 -202 l-23 -47 -3 -667 -3 -668
126 0 125 0 0 203 0 202 117 0 c107 0 123 2 175 27 70 33 145 106 178 173 25
50 25 53 28 376 3 310 2 329 -18 382 -40 108 -154 200 -278 226 -68 14 -104
13 -171 -5z m159 -239 c57 -30 60 -46 60 -355 l0 -280 -33 -36 c-44 -48 -105
-57 -157 -22 -59 40 -60 46 -60 346 0 298 3 317 58 346 35 20 95 20 132 1z"/>
<path d="M2867 3316 c-72 -30 -136 -82 -176 -143 -63 -94 -61 -70 -61 -930 l0
-783 125 0 125 0 0 375 0 375 125 0 125 0 0 130 0 130 -125 0 -126 0 3 275 3
275 31 31 c67 67 172 41 204 -49 l14 -42 125 0 124 0 -6 54 c-12 118 -103 242
-215 294 -84 39 -214 42 -295 8z"/>
<path d="M1801 1684 c-85 -71 -38 -214 70 -214 100 0 159 92 115 179 -34 65
-128 83 -185 35z"/>
</g>
</svg>
