<?xml version="1.0" standalone="no"?>
<!DOCTYPE svg PUBLIC "-//W3C//DTD SVG 20010904//EN"
 "http://www.w3.org/TR/2001/REC-SVG-20010904/DTD/svg10.dtd">
<svg version="1.0" xmlns="http://www.w3.org/2000/svg"
 width="500.000000pt" height="500.000000pt" viewBox="0 0 500.000000 500.000000"
 preserveAspectRatio="xMidYMid meet">
<metadata>
Created by potrace 1.11, written by Peter Selinger 2001-2013
</metadata>
<g transform="translate(0.000000,500.000000) scale(0.100000,-0.100000)"
fill="#000000" stroke="none">
<path d="M2330 4944 c-256 -29 -458 -74 -635 -139 -141 -51 -402 -182 -520
-261 -555 -369 -944 -944 -1069 -1582 -35 -177 -46 -293 -46 -494 0 -347 63
-661 195 -964 351 -813 1082 -1362 1975 -1485 123 -17 477 -17 600 0 443 61
840 222 1189 484 109 82 361 327 443 432 279 356 443 740 515 1205 24 160 24
508 -1 675 -84 559 -342 1061 -748 1450 -195 188 -379 316 -633 440 -225 111
-447 180 -700 221 -95 15 -484 27 -565 18z m500 -499 c587 -97 1091 -434 1394
-933 63 -104 99 -172 94 -177 -2 -2 -16 21 -32 51 -28 53 -51 68 -62 40 -3 -8
15 -58 40 -112 132 -290 186 -530 186 -834 0 -433 -132 -827 -394 -1175 -78
-103 -259 -285 -361 -362 -352 -265 -737 -395 -1170 -395 -370 0 -689 91
-1042 298 -29 17 -33 17 -50 2 -17 -16 -23 -13 -108 47 -165 118 -369 340
-485 530 -138 225 -238 495 -282 760 -17 106 -17 474 0 580 57 345 191 658
401 934 124 162 343 359 527 472 245 150 565 260 844 288 124 13 380 5 500
-14z m1570 -1300 c0 -5 -5 -3 -10 5 -5 8 -10 20 -10 25 0 6 5 3 10 -5 5 -8 10
-19 10 -25z m37 -127 c-3 -8 -6 -5 -6 6 -1 11 2 17 5 13 3 -3 4 -12 1 -19z
m10 -40 c-3 -8 -6 -5 -6 6 -1 11 2 17 5 13 3 -3 4 -12 1 -19z m30 -120 c-3 -8
-6 -5 -6 6 -1 11 2 17 5 13 3 -3 4 -12 1 -19z m10 -50 c-3 -8 -6 -5 -6 6 -1
11 2 17 5 13 3 -3 4 -12 1 -19z m10 -70 c-3 -7 -5 -2 -5 12 0 14 2 19 5 13 2
-7 2 -19 0 -25z m10 -95 c-3 -10 -5 -2 -5 17 0 19 2 27 5 18 2 -10 2 -26 0
-35z m10 -180 c-2 -16 -4 -5 -4 22 0 28 2 40 4 28 2 -13 2 -35 0 -50z"/>
<path d="M1482 3440 c-68 -16 -121 -96 -108 -165 25 -129 214 -158 270 -41 54
113 -42 233 -162 206z"/>
<path d="M3304 3431 c-143 -49 -246 -155 -290 -300 -11 -37 -14 -161 -14 -653
l0 -608 145 0 145 0 0 245 0 245 140 0 140 0 0 145 0 145 -140 0 -140 0 0 201
c0 237 6 259 78 291 86 39 202 -20 202 -101 0 -20 4 -21 146 -21 l147 0 -6 56
c-12 120 -112 265 -221 321 -109 55 -232 68 -332 34z"/>
<path d="M2300 3005 l0 -355 -85 0 -85 0 0 -145 0 -145 84 0 84 0 5 -272 c4
-298 9 -328 66 -417 86 -133 214 -202 379 -205 l87 -1 0 134 0 134 -60 1 c-75
2 -132 30 -160 77 -18 31 -20 55 -23 292 l-3 257 100 0 101 0 0 145 0 145
-100 0 -100 0 0 355 0 355 -145 0 -145 0 0 -355z"/>
<path d="M1375 2563 c-9 -545 -4 -714 21 -787 62 -181 227 -305 407 -306 l47
0 0 148 0 148 -49 0 c-54 0 -91 19 -118 61 -17 25 -18 73 -21 625 l-3 598
-138 0 -139 0 -7 -487z"/>
<path d="M2055 1763 c-113 -29 -143 -188 -49 -262 59 -46 161 -31 205 31 79
110 -25 264 -156 231z"/>
<path d="M3085 1756 c-41 -18 -83 -69 -91 -111 -19 -102 85 -196 185 -167 103
32 142 152 74 233 -46 54 -109 71 -168 45z"/>
</g>
</svg>
