<?xml version="1.0" encoding="UTF-8" standalone="no"?>
<!-- Created with Inkscape (http://www.inkscape.org/) -->

<svg
   xmlns:dc="http://purl.org/dc/elements/1.1/"
   xmlns:cc="http://creativecommons.org/ns#"
   xmlns:rdf="http://www.w3.org/1999/02/22-rdf-syntax-ns#"
   xmlns:svg="http://www.w3.org/2000/svg"
   xmlns="http://www.w3.org/2000/svg"
   xmlns:sodipodi="http://sodipodi.sourceforge.net/DTD/sodipodi-0.dtd"
   xmlns:inkscape="http://www.inkscape.org/namespaces/inkscape"
   width="153"
   height="40"
   id="svg4686"
   version="1.1"
   inkscape:version="0.91 r13725"
   sodipodi:docname="content-title.svg"
   inkscape:export-filename="/home/user/dev/if.then.fund/itfsite/static/branding/content-title.png"
   inkscape:export-xdpi="42.1875"
   inkscape:export-ydpi="42.1875">
  <defs
     id="defs4688" />
  <sodipodi:namedview
     id="base"
     pagecolor="#ffffff"
     bordercolor="#666666"
     borderopacity="1.0"
     inkscape:pageopacity="0.0"
     inkscape:pageshadow="2"
     inkscape:zoom="3.959798"
     inkscape:cx="129.99531"
     inkscape:cy="6.0346053"
     inkscape:document-units="px"
     inkscape:current-layer="layer1"
     showgrid="false"
     inkscape:window-width="1551"
     inkscape:window-height="876"
     inkscape:window-x="49"
     inkscape:window-y="24"
     inkscape:window-maximized="1" />
  <metadata
     id="metadata4691">
    <rdf:RDF>
      <cc:Work
         rdf:about="">
        <dc:format>image/svg+xml</dc:format>
        <dc:type
           rdf:resource="http://purl.org/dc/dcmitype/StillImage" />
        <dc:title></dc:title>
      </cc:Work>
    </rdf:RDF>
  </metadata>
  <g
     inkscape:label="Layer 1"
     inkscape:groupmode="layer"
     id="layer1"
     transform="translate(0,-1012.3622)">
    <g
       transform="matrix(0.7699179,0,0,-0.7699179,-140.44717,1401.7542)"
       id="g10030">
      <g
         transform="translate(327.499,468.6182)"
         id="g6168">
        <path
           inkscape:connector-curvature="0"
           id="path6170"
           style="fill:#6260b6;fill-opacity:1;fill-rule:nonzero;stroke:none"
           d="m 0,0 c 0,-1.117 -0.908,-2.027 -2.025,-2.027 -1.121,0 -2.03,0.91 -2.03,2.027 0,1.119 0.909,2.032 2.03,2.032 C -0.908,2.032 0,1.119 0,0" />
      </g>
      <g
         transform="translate(204.9307,481.8662)"
         id="g6172">
        <path
           inkscape:connector-curvature="0"
           id="path6174"
           style="fill:#847dc6;fill-opacity:1;fill-rule:nonzero;stroke:none"
           d="m 0,0 c -0.316,0.312 -0.732,0.467 -1.255,0.467 -0.548,0 -1.012,-0.191 -1.39,-0.568 -0.377,-0.378 -0.57,-0.843 -0.57,-1.391 l 0,-13.904 -3.912,0 0,19.583 2.857,0 0,-0.624 c 0.441,0.259 0.922,0.46 1.43,0.608 0.51,0.141 1.037,0.212 1.585,0.212 1.176,0 2.26,-0.324 3.252,-0.975 L 0,0 Z" />
      </g>
      <g
         transform="translate(215.1543,480.374)"
         id="g6176">
        <path
           inkscape:connector-curvature="0"
           id="path6178"
           style="fill:#847dc6;fill-opacity:1;fill-rule:nonzero;stroke:none"
           d="m 0,0 c 0,0.548 -0.191,1.014 -0.569,1.392 -0.378,0.377 -0.844,0.567 -1.39,0.567 -0.549,0 -1.014,-0.19 -1.391,-0.567 C -3.728,1.014 -3.918,0.548 -3.918,0 l 0,-8.222 c 0,-0.548 0.19,-1.011 0.568,-1.389 0.377,-0.381 0.842,-0.57 1.391,-0.57 0.546,0 1.012,0.189 1.39,0.57 C -0.191,-9.233 0,-8.77 0,-8.222 L 0,0 Z m -1.959,5.875 c 0.808,0 1.574,-0.153 2.29,-0.471 C 1.049,5.094 1.67,4.674 2.188,4.153 2.713,3.63 3.134,3.01 3.445,2.291 3.758,1.574 3.913,0.812 3.913,0 l 0,-8.222 c 0,-0.809 -0.155,-1.575 -0.468,-2.294 -0.311,-0.715 -0.732,-1.334 -1.257,-1.86 -0.518,-0.521 -1.139,-0.938 -1.857,-1.253 -0.716,-0.313 -1.482,-0.469 -2.29,-0.469 -0.812,0 -1.575,0.156 -2.294,0.469 -0.716,0.315 -1.337,0.732 -1.86,1.253 -0.52,0.526 -0.939,1.145 -1.251,1.86 -0.315,0.719 -0.472,1.485 -0.472,2.294 l 0,8.222 c 0,0.812 0.157,1.574 0.472,2.291 0.312,0.719 0.731,1.339 1.251,1.862 0.523,0.521 1.144,0.941 1.86,1.251 0.719,0.318 1.482,0.471 2.294,0.471" />
      </g>
      <g
         transform="translate(229.6924,480.374)"
         id="g6180">
        <path
           inkscape:connector-curvature="0"
           id="path6182"
           style="fill:#847dc6;fill-opacity:1;fill-rule:nonzero;stroke:none"
           d="m 0,0 c 0,0.548 -0.191,1.014 -0.568,1.392 -0.38,0.377 -0.843,0.567 -1.39,0.567 -0.549,0 -1.014,-0.19 -1.392,-0.567 C -3.727,1.014 -3.917,0.548 -3.917,0 l 0,-8.222 c 0,-0.548 0.19,-1.011 0.567,-1.389 0.378,-0.381 0.843,-0.57 1.392,-0.57 0.547,0 1.01,0.189 1.39,0.57 C -0.191,-9.233 0,-8.77 0,-8.222 L 0,0 Z m 3.918,-16.057 c 0,-0.806 -0.159,-1.573 -0.473,-2.29 -0.313,-0.717 -0.732,-1.34 -1.251,-1.863 -0.523,-0.519 -1.143,-0.934 -1.86,-1.251 -0.721,-0.31 -1.483,-0.472 -2.292,-0.472 -0.812,0 -1.574,0.162 -2.29,0.472 -0.719,0.317 -1.34,0.732 -1.865,1.251 -0.519,0.523 -0.939,1.146 -1.25,1.863 -0.313,0.717 -0.472,1.484 -0.472,2.29 l 3.918,0 c 0,-0.546 0.19,-1.012 0.567,-1.389 0.378,-0.378 0.843,-0.569 1.392,-0.569 0.547,0 1.01,0.191 1.39,0.569 0.377,0.377 0.568,0.843 0.568,1.389 l 0,2.313 c -0.627,-0.235 -1.279,-0.354 -1.958,-0.354 -0.812,0 -1.574,0.156 -2.29,0.469 -0.719,0.315 -1.34,0.732 -1.865,1.253 -0.519,0.526 -0.939,1.145 -1.25,1.86 -0.313,0.719 -0.472,1.485 -0.472,2.294 l 0,8.222 c 0,0.812 0.159,1.574 0.472,2.291 0.311,0.719 0.731,1.339 1.25,1.862 0.525,0.521 1.146,0.941 1.865,1.251 0.716,0.318 1.478,0.471 2.29,0.471 0.547,0 1.076,-0.07 1.586,-0.212 C 0.135,5.516 0.612,5.314 1.057,5.055 l 0,0.624 2.861,0 0,-21.736 z" />
      </g>
      <g
         transform="translate(243.4375,481.8662)"
         id="g6184">
        <path
           inkscape:connector-curvature="0"
           id="path6186"
           style="fill:#847dc6;fill-opacity:1;fill-rule:nonzero;stroke:none"
           d="m 0,0 c -0.312,0.312 -0.733,0.467 -1.253,0.467 -0.551,0 -1.013,-0.191 -1.39,-0.568 -0.38,-0.378 -0.569,-0.843 -0.569,-1.391 l 0,-13.904 -3.917,0 0,19.583 2.859,0 0,-0.624 c 0.446,0.259 0.92,0.46 1.43,0.608 0.51,0.141 1.036,0.212 1.587,0.212 1.177,0 2.259,-0.324 3.248,-0.975 L 0,0 Z" />
      </g>
      <g
         transform="translate(249.7422,478.417)"
         id="g6188">
        <path
           inkscape:connector-curvature="0"
           id="path6190"
           style="fill:#847dc6;fill-opacity:1;fill-rule:nonzero;stroke:none"
           d="m 0,0 3.919,0 0,1.957 C 3.919,2.505 3.727,2.971 3.35,3.349 2.972,3.726 2.506,3.916 1.959,3.916 1.412,3.916 0.945,3.726 0.567,3.349 0.189,2.971 0,2.505 0,1.957 L 0,0 Z m 1.959,-8.224 c 0.547,0 1.013,0.189 1.391,0.57 0.377,0.378 0.569,0.842 0.569,1.389 l 3.914,0 C 7.833,-7.074 7.679,-7.84 7.367,-8.559 7.05,-9.274 6.632,-9.893 6.112,-10.419 5.588,-10.94 4.967,-11.357 4.25,-11.672 c -0.719,-0.313 -1.479,-0.469 -2.291,-0.469 -0.807,0 -1.57,0.156 -2.287,0.469 -0.721,0.315 -1.339,0.732 -1.862,1.253 -0.525,0.526 -0.942,1.145 -1.255,1.86 -0.312,0.719 -0.467,1.485 -0.467,2.294 l 0,8.222 c 0,0.812 0.155,1.574 0.467,2.291 0.313,0.719 0.73,1.339 1.255,1.862 0.523,0.521 1.141,0.941 1.862,1.251 0.717,0.318 1.48,0.471 2.287,0.471 0.812,0 1.572,-0.153 2.291,-0.471 C 4.967,7.051 5.588,6.631 6.112,6.11 6.632,5.587 7.05,4.967 7.367,4.248 7.679,3.531 7.833,2.769 7.833,1.957 l 0,-4.895 -7.833,0 0,-3.327 c 0,-0.547 0.189,-1.011 0.567,-1.389 0.378,-0.381 0.845,-0.57 1.392,-0.57" />
      </g>
      <g
         transform="translate(263.8408,480.374)"
         id="g6192">
        <path
           inkscape:connector-curvature="0"
           id="path6194"
           style="fill:#847dc6;fill-opacity:1;fill-rule:nonzero;stroke:none"
           d="M 0,0 C 0,-0.495 0.197,-0.904 0.59,-1.233 0.98,-1.56 1.463,-1.855 2.038,-2.131 2.614,-2.408 3.237,-2.696 3.917,-2.995 4.597,-3.296 5.225,-3.673 5.8,-4.129 6.372,-4.588 6.856,-5.143 7.248,-5.796 7.64,-6.447 7.833,-7.259 7.833,-8.222 c 0,-0.809 -0.155,-1.575 -0.469,-2.294 -0.313,-0.715 -0.728,-1.334 -1.254,-1.86 -0.522,-0.521 -1.142,-0.938 -1.86,-1.253 -0.717,-0.313 -1.479,-0.469 -2.288,-0.469 -0.812,0 -1.573,0.156 -2.295,0.469 -0.717,0.315 -1.339,0.732 -1.858,1.253 -0.524,0.526 -0.939,1.145 -1.256,1.86 -0.31,0.719 -0.466,1.485 -0.466,2.294 l 3.913,0 c 0,-0.548 0.19,-1.011 0.568,-1.389 0.382,-0.381 0.843,-0.57 1.394,-0.57 0.548,0 1.008,0.189 1.388,0.57 0.379,0.378 0.567,0.841 0.567,1.389 0,0.496 -0.194,0.904 -0.586,1.234 -0.393,0.326 -0.876,0.632 -1.449,0.92 -0.573,0.288 -1.201,0.577 -1.882,0.88 -0.679,0.301 -1.304,0.679 -1.879,1.136 -0.576,0.458 -1.058,1.012 -1.449,1.664 -0.391,0.653 -0.585,1.477 -0.585,2.469 0,0.807 0.156,1.566 0.466,2.27 0.317,0.705 0.74,1.317 1.278,1.84 0.532,0.525 1.154,0.934 1.857,1.235 C 0.396,5.728 1.15,5.875 1.962,5.875 2.771,5.875 3.533,5.722 4.25,5.404 4.968,5.094 5.588,4.674 6.11,4.153 6.636,3.63 7.051,3.01 7.364,2.291 7.678,1.574 7.833,0.812 7.833,0 L 3.917,0 C 3.917,0.548 3.729,1.014 3.35,1.392 2.97,1.769 2.51,1.959 1.962,1.959 1.411,1.959 0.95,1.769 0.568,1.392 0.19,1.014 0,0.548 0,0" />
      </g>
      <g
         transform="translate(277.9424,480.374)"
         id="g6196">
        <path
           inkscape:connector-curvature="0"
           id="path6198"
           style="fill:#847dc6;fill-opacity:1;fill-rule:nonzero;stroke:none"
           d="m 0,0 c 0,-0.495 0.195,-0.904 0.587,-1.233 0.391,-0.327 0.871,-0.622 1.448,-0.898 0.577,-0.277 1.204,-0.565 1.883,-0.864 0.675,-0.301 1.302,-0.678 1.879,-1.134 0.572,-0.459 1.056,-1.014 1.449,-1.667 0.391,-0.651 0.585,-1.463 0.585,-2.426 0,-0.809 -0.155,-1.575 -0.467,-2.294 -0.318,-0.715 -0.731,-1.334 -1.257,-1.86 -0.519,-0.521 -1.139,-0.938 -1.856,-1.253 -0.723,-0.313 -1.483,-0.469 -2.295,-0.469 -0.809,0 -1.57,0.156 -2.289,0.469 -0.72,0.315 -1.34,0.732 -1.862,1.253 -0.521,0.526 -0.94,1.145 -1.255,1.86 -0.312,0.719 -0.466,1.485 -0.466,2.294 l 3.916,0 c 0,-0.548 0.188,-1.011 0.568,-1.389 0.379,-0.381 0.84,-0.57 1.388,-0.57 0.55,0 1.013,0.189 1.392,0.57 0.379,0.378 0.57,0.841 0.57,1.389 0,0.496 -0.198,0.904 -0.589,1.234 -0.391,0.326 -0.875,0.632 -1.45,0.92 -0.576,0.288 -1.2,0.577 -1.879,0.88 -0.679,0.301 -1.306,0.679 -1.878,1.136 -0.577,0.458 -1.063,1.012 -1.453,1.664 -0.391,0.653 -0.585,1.477 -0.585,2.469 0,0.807 0.154,1.566 0.466,2.27 0.315,0.705 0.74,1.317 1.276,1.84 0.534,0.525 1.156,0.934 1.857,1.235 0.706,0.302 1.464,0.449 2.273,0.449 0.812,0 1.572,-0.153 2.295,-0.471 C 4.968,5.094 5.588,4.674 6.107,4.153 6.633,3.63 7.046,3.01 7.364,2.291 7.676,1.574 7.831,0.812 7.831,0 L 3.918,0 c 0,0.548 -0.191,1.014 -0.57,1.392 C 2.969,1.769 2.506,1.959 1.956,1.959 1.408,1.959 0.947,1.769 0.568,1.392 0.188,1.014 0,0.548 0,0" />
      </g>
      <path
         inkscape:connector-curvature="0"
         id="path6200"
         style="fill:#847dc6;fill-opacity:1;fill-rule:nonzero;stroke:none"
         d="m 288.563,486.053 3.918,0 0,-19.583 -3.918,0 0,19.583 z" />
      <g
         transform="translate(298.7461,486.0527)"
         id="g6202">
        <path
           inkscape:connector-curvature="0"
           id="path6204"
           style="fill:#847dc6;fill-opacity:1;fill-rule:nonzero;stroke:none"
           d="M 0,0 2.939,-11.747 5.874,0 9.792,0 4.898,-19.583 l -3.919,0 L -3.918,0 0,0 Z" />
      </g>
      <g
         transform="translate(313.2676,478.417)"
         id="g6206">
        <path
           inkscape:connector-curvature="0"
           id="path6208"
           style="fill:#847dc6;fill-opacity:1;fill-rule:nonzero;stroke:none"
           d="m 0,0 3.916,0 0,1.957 c 0,0.548 -0.19,1.014 -0.568,1.392 C 2.97,3.726 2.505,3.916 1.956,3.916 1.41,3.916 0.947,3.726 0.569,3.349 0.19,2.971 0,2.505 0,1.957 L 0,0 Z m 1.956,-8.224 c 0.549,0 1.014,0.189 1.392,0.57 0.378,0.378 0.568,0.842 0.568,1.389 l 3.918,0 c 0,-0.809 -0.161,-1.575 -0.472,-2.294 -0.311,-0.715 -0.731,-1.334 -1.25,-1.86 -0.525,-0.521 -1.145,-0.938 -1.864,-1.253 -0.717,-0.313 -1.482,-0.469 -2.292,-0.469 -0.806,0 -1.571,0.156 -2.291,0.469 -0.715,0.315 -1.338,0.732 -1.855,1.253 -0.525,0.526 -0.944,1.145 -1.256,1.86 -0.312,0.719 -0.472,1.485 -0.472,2.294 l 0,8.222 c 0,0.812 0.16,1.574 0.472,2.291 0.312,0.719 0.731,1.339 1.256,1.862 0.517,0.521 1.14,0.941 1.855,1.251 0.72,0.318 1.485,0.471 2.291,0.471 0.81,0 1.575,-0.153 2.292,-0.471 C 4.967,7.051 5.587,6.631 6.112,6.11 6.631,5.587 7.051,4.967 7.362,4.248 7.673,3.531 7.834,2.769 7.834,1.957 l 0,-4.895 -7.834,0 0,-3.327 c 0,-0.547 0.19,-1.011 0.569,-1.389 0.378,-0.381 0.841,-0.57 1.387,-0.57" />
      </g>
      <g
         transform="translate(336.1621,491.9287)"
         id="g6210">
        <path
           inkscape:connector-curvature="0"
           id="path6212"
           style="fill:#4449a6;fill-opacity:1;fill-rule:nonzero;stroke:none"
           d="M 0,0 C -0.546,0 -1.011,-0.189 -1.389,-0.568 -1.767,-0.946 -1.958,-1.41 -1.958,-1.959 l 0,-7.83 3.918,0 0,-3.918 -3.918,0 0,-11.752 -3.916,0 0,23.5 c 0,0.813 0.159,1.575 0.472,2.293 0.312,0.717 0.731,1.338 1.251,1.86 0.522,0.521 1.143,0.941 1.862,1.253 0.717,0.315 1.484,0.471 2.289,0.471 0.809,0 1.576,-0.156 2.292,-0.471 0.719,-0.312 1.337,-0.732 1.862,-1.253 0.52,-0.522 0.94,-1.143 1.251,-1.86 0.313,-0.718 0.473,-1.48 0.473,-2.293 l -3.918,0 c 0,0.549 -0.19,1.013 -0.567,1.391 C 1.014,-0.189 0.551,0 0,0" />
      </g>
      <g
         transform="translate(352.5732,486.0527)"
         id="g6214">
        <path
           inkscape:connector-curvature="0"
           id="path6216"
           style="fill:#4449a6;fill-opacity:1;fill-rule:nonzero;stroke:none"
           d="m 0,0 0,-14.098 c 0,-0.807 -0.156,-1.573 -0.471,-2.291 -0.311,-0.718 -0.732,-1.338 -1.252,-1.858 -0.524,-0.524 -1.143,-0.94 -1.861,-1.256 -0.718,-0.311 -1.479,-0.471 -2.292,-0.471 -0.809,0 -1.572,0.16 -2.291,0.471 -0.717,0.316 -1.34,0.732 -1.857,1.256 -0.525,0.52 -0.944,1.14 -1.254,1.858 -0.317,0.718 -0.469,1.484 -0.469,2.291 l 0,14.098 3.913,0 0,-14.098 c 0,-0.548 0.191,-1.012 0.569,-1.389 0.378,-0.379 0.843,-0.57 1.389,-0.57 0.549,0 1.012,0.191 1.39,0.57 0.38,0.377 0.569,0.841 0.569,1.389 L -3.917,0 0,0 Z" />
      </g>
      <g
         transform="translate(361.1953,486.249)"
         id="g6218">
        <path
           inkscape:connector-curvature="0"
           id="path6220"
           style="fill:#4449a6;fill-opacity:1;fill-rule:nonzero;stroke:none"
           d="m 0,0 c 0.808,0 1.571,-0.153 2.284,-0.471 0.718,-0.31 1.339,-0.73 1.862,-1.251 0.521,-0.523 0.937,-1.143 1.25,-1.862 0.318,-0.717 0.469,-1.479 0.469,-2.291 l 0,-13.904 -3.908,0 0,13.904 c 0,0.548 -0.192,1.014 -0.566,1.392 -0.383,0.377 -0.843,0.567 -1.391,0.567 -0.552,0 -1.012,-0.19 -1.39,-0.567 -0.381,-0.378 -0.569,-0.844 -0.569,-1.392 l 0,-13.904 -3.916,0 0,19.583 2.861,0 0,-0.624 c 0.443,0.259 0.918,0.461 1.427,0.608 C -1.077,-0.07 -0.552,0 0,0" />
      </g>
      <g
         transform="translate(373.5928,472.1523)"
         id="g6222">
        <path
           inkscape:connector-curvature="0"
           id="path6224"
           style="fill:#4449a6;fill-opacity:1;fill-rule:nonzero;stroke:none"
           d="m 0,0 c 0,-0.548 0.186,-1.012 0.566,-1.39 0.38,-0.381 0.839,-0.569 1.392,-0.569 0.521,0 0.978,0.188 1.369,0.569 0.392,0.378 0.589,0.842 0.589,1.39 l 0,8.222 C 3.916,8.77 3.719,9.235 3.327,9.613 2.936,9.99 2.479,10.181 1.958,10.181 1.405,10.181 0.946,9.99 0.566,9.613 0.186,9.235 0,8.77 0,8.222 L 0,0 Z m 1.958,-5.876 c -0.812,0 -1.574,0.155 -2.291,0.469 -0.722,0.314 -1.34,0.731 -1.863,1.253 -0.523,0.526 -0.939,1.144 -1.25,1.86 C -3.76,-1.575 -3.917,-0.81 -3.917,0 l 0,8.222 c 0,0.811 0.157,1.574 0.471,2.291 0.311,0.718 0.727,1.339 1.25,1.862 0.523,0.521 1.141,0.94 1.863,1.251 0.717,0.317 1.479,0.471 2.291,0.471 0.676,0 1.33,-0.116 1.958,-0.351 l 0,7.989 3.917,0 0,-27.418 -2.858,0 0,0.629 C 4.529,-5.314 4.05,-5.518 3.543,-5.661 3.036,-5.803 2.506,-5.876 1.958,-5.876" />
      </g>
      <g
         transform="translate(292.5449,490.3896)"
         id="g6226">
        <path
           inkscape:connector-curvature="0"
           id="path6228"
           style="fill:#847dc6;fill-opacity:1;fill-rule:nonzero;stroke:none"
           d="m 0,0 c 0,-1.118 -0.908,-2.028 -2.026,-2.028 -1.121,0 -2.03,0.91 -2.03,2.028 0,1.119 0.909,2.031 2.03,2.031 C -0.908,2.031 0,1.119 0,0" />
      </g>
      <g
         transform="translate(190.6855,472.1055)"
         id="g6230">
        <path
           inkscape:connector-curvature="0"
           id="path6232"
           style="fill:#847dc6;fill-opacity:1;fill-rule:nonzero;stroke:none"
           d="m 0,0 c 0,-0.555 -0.205,-1.024 -0.614,-1.408 -0.411,-0.382 -0.911,-0.574 -1.506,-0.574 -0.595,0 -1.094,0.192 -1.505,0.574 -0.409,0.384 -0.613,0.853 -0.613,1.408 l 0,8.324 c 0,0.557 0.204,1.026 0.613,1.409 0.411,0.381 0.91,0.574 1.505,0.574 0.595,0 1.095,-0.193 1.506,-0.574 C -0.205,9.35 0,8.881 0,8.324 L 0,0 Z M 3.73,10.644 C 3.393,11.37 2.939,11.999 2.374,12.527 1.81,13.056 1.138,13.479 0.36,13.796 c -0.778,0.317 -1.603,0.475 -2.48,0.475 -0.875,0 -1.702,-0.158 -2.479,-0.475 -0.778,-0.317 -1.449,-0.74 -2.014,-1.269 C -7.179,11.999 -7.63,11.37 -7.97,10.644 -8.309,9.917 -8.478,9.145 -8.478,8.324 l 0,-5.498 -0.021,0 -0.003,-21.315 4.205,0 10e-4,12.912 c 0.689,-0.24 1.412,-0.369 2.176,-0.369 0.877,0 1.702,0.158 2.48,0.475 0.778,0.318 1.45,0.741 2.014,1.269 0.565,0.527 1.019,1.154 1.356,1.882 0.339,0.727 0.509,1.501 0.509,2.32 l 0,8.324 c 0,0.821 -0.17,1.593 -0.509,2.32" />
      </g>
    </g>
  </g>
</svg>
