<?xml version="1.0" encoding="UTF-8" standalone="no"?>
<!-- Created with Inkscape (http://www.inkscape.org/) -->

<svg
   xmlns:dc="http://purl.org/dc/elements/1.1/"
   xmlns:cc="http://creativecommons.org/ns#"
   xmlns:rdf="http://www.w3.org/1999/02/22-rdf-syntax-ns#"
   xmlns:svg="http://www.w3.org/2000/svg"
   xmlns="http://www.w3.org/2000/svg"
   xmlns:xlink="http://www.w3.org/1999/xlink"
   xmlns:sodipodi="http://sodipodi.sourceforge.net/DTD/sodipodi-0.dtd"
   xmlns:inkscape="http://www.inkscape.org/namespaces/inkscape"
   width="241"
   height="71"
   id="svg4686"
   version="1.1"
   inkscape:version="0.91 r13725"
   sodipodi:docname="navbar-title.svg"
   inkscape:export-filename="/home/user/dev/if.then.fund/branding/progressive.fund/static/navbar-title.png"
   inkscape:export-xdpi="38.977489"
   inkscape:export-ydpi="38.977489">
  <defs
     id="defs4688">
    <linearGradient
       id="SVGID_12_"
       gradientUnits="userSpaceOnUse"
       x1="176.8598"
       y1="134.16789"
       x2="131.6992"
       y2="55.947399">
      <stop
         offset="9.507450e-02"
         style="stop-color:#D5D8DA"
         id="stop1349" />
      <stop
         offset="0.9342"
         style="stop-color:#FFFFFF"
         id="stop1351" />
    </linearGradient>
    <linearGradient
       id="SVGID_13_"
       gradientUnits="userSpaceOnUse"
       x1="189.4364"
       y1="132.02541"
       x2="141.366"
       y2="81.483398">
      <stop
         offset="0.5363"
         style="stop-color:#000000"
         id="stop1356" />
      <stop
         offset="0.6591"
         style="stop-color:#FFFFFF"
         id="stop1358" />
    </linearGradient>
    <clipPath
       id="SVGID_11_">
      <use
         height="1052.3622"
         width="744.09448"
         y="0"
         x="0"
         style="overflow:visible"
         xlink:href="#SVGID_10_"
         overflow="visible"
         id="use1306" />
    </clipPath>
    <linearGradient
       gradientTransform="matrix(0.6097774,0,0,0.6097774,-58.078005,959.48697)"
       id="SVGID_9_"
       gradientUnits="userSpaceOnUse"
       x1="157.2896"
       y1="97.982399"
       x2="85.556801"
       y2="28.9876">
      <stop
         offset="7.198250e-02"
         style="stop-color:#FFFFFF"
         id="stop1294" />
      <stop
         offset="0.2721"
         style="stop-color:#000000"
         id="stop1296" />
    </linearGradient>
  </defs>
  <sodipodi:namedview
     id="base"
     pagecolor="#ffffff"
     bordercolor="#666666"
     borderopacity="1.0"
     inkscape:pageopacity="0.0"
     inkscape:pageshadow="2"
     inkscape:zoom="3.3389524"
     inkscape:cx="96.201534"
     inkscape:cy="20.061724"
     inkscape:document-units="px"
     inkscape:current-layer="layer1"
     showgrid="false"
     inkscape:window-width="1625"
     inkscape:window-height="1026"
     inkscape:window-x="55"
     inkscape:window-y="24"
     inkscape:window-maximized="1" />
  <metadata
     id="metadata4691">
    <rdf:RDF>
      <cc:Work
         rdf:about="">
        <dc:format>image/svg+xml</dc:format>
        <dc:type
           rdf:resource="http://purl.org/dc/dcmitype/StillImage" />
        <dc:title />
      </cc:Work>
    </rdf:RDF>
  </metadata>
  <g
     inkscape:label="Layer 1"
     inkscape:groupmode="layer"
     id="layer1"
     transform="translate(0,-981.3622)">
    <path
       style="fill:#80a638"
       inkscape:connector-curvature="0"
       d="m 36.010659,983.20735 c -18.90311,0 -34.2694865,15.3663 -34.2694865,34.26965 0,18.903 15.3663765,34.2693 34.2694865,34.2693 18.903097,0 34.269488,-15.3663 34.269488,-34.2693 0,-18.90335 -15.366391,-34.26965 -34.269488,-34.26965 z m 0,61.77055 c -15.183467,0 -27.5619455,-12.3176 -27.5619455,-27.562 0,-15.1835 12.3175015,-27.56185 27.5619455,-27.56185 15.183454,0 27.561935,12.31755 27.561935,27.56185 -0.06098,15.2444 -12.378481,27.562 -27.561935,27.562 z"
       id="path1291" />
    <path
       style="opacity:0.2;fill:url(#SVGID_9_)"
       inkscape:connector-curvature="0"
       d="m 1.6801955,1017.477 c 0,-18.90335 15.3663775,-34.26965 34.2694855,-34.26965 9.512525,0 18.110388,3.9027 24.330116,10.1224 l 0.487821,-0.488 c -6.341682,-6.4025 -15.122478,-10.3662 -24.817937,-10.3662 -19.329944,0 -35.00122553,15.7324 -35.00122553,35.00145 0,9.6954 3.96354703,18.4763 10.36622453,24.8177 l 0.487814,-0.4878 C 5.5827675,1035.5875 1.6801955,1026.9894 1.6801955,1017.477 z"
       id="path1298" />
    <g
       transform="matrix(0.6097774,0,0,0.6097774,-58.078005,959.48697)"
       style="opacity:0.3"
       id="g1300">
      <defs
         id="defs1302">
        <path
           style="opacity:0.3"
           inkscape:connector-curvature="0"
           id="SVGID_10_"
           d="m 154.3,38.9 c -31,0 -56.2,25.2 -56.2,56.2 0,31 25.2,56.2 56.2,56.2 31,0 56.2,-25.2 56.2,-56.2 0,-31.1 -25.2,-56.2 -56.2,-56.2 z m 0,101.3 c -24.9,0 -45.2,-20.2 -45.2,-45.2 0,-24.9 20.2,-45.2 45.2,-45.2 24.9,0 45.2,20.2 45.2,45.2 -0.1,25 -20.3,45.2 -45.2,45.2 z" />
      </defs>
      <clipPath
         id="clipPath4688">
        <use
           height="1052.3622"
           width="744.09448"
           y="0"
           x="0"
           style="overflow:visible"
           xlink:href="#SVGID_10_"
           overflow="visible"
           id="use4690" />
      </clipPath>
      <g
         clip-path="url(#SVGID_11_)"
         id="g1308">
        <path
           inkscape:connector-curvature="0"
           d="m 154.3,140.2 c -24.9,0 -45.2,-20.2 -45.2,-45.2 0,-24.9 20.2,-45.2 45.2,-45.2 24.9,0 45.2,20.2 45.2,45.2 -0.1,25 -20.3,45.2 -45.2,45.2 z m 0,-101.3 c -31,0 -56.2,25.2 -56.2,56.2 0,31 25.2,56.2 56.2,56.2 31,0 56.2,-25.2 56.2,-56.2 0,-31.1 -25.2,-56.2 -56.2,-56.2 z"
           id="path1310" />
        <path
           style="fill:#0f0f0f"
           inkscape:connector-curvature="0"
           d="m 154.7,140.6 c -24.9,0 -45.2,-20.2 -45.2,-45.2 0,-24.9 20.2,-45.2 45.2,-45.2 24.9,0 45.2,20.2 45.2,45.2 0,25 -20.3,45.2 -45.2,45.2 z m 0,-101.3 c -31,0 -56.2,25.2 -56.2,56.2 0,31 25.2,56.2 56.2,56.2 31,0 56.2,-25.2 56.2,-56.2 0,-31.1 -25.2,-56.2 -56.2,-56.2 z"
           id="path1312" />
        <path
           style="fill:#1e1e1e"
           inkscape:connector-curvature="0"
           d="m 155.1,141.1 c -24.9,0 -45.2,-20.2 -45.2,-45.2 0,-24.9 20.2,-45.2 45.2,-45.2 24.9,0 45.2,20.2 45.2,45.2 0,24.9 -20.2,45.2 -45.2,45.2 z m 0,-101.4 c -31,0 -56.2,25.2 -56.2,56.2 0,31 25.2,56.2 56.2,56.2 31,0 56.2,-25.2 56.2,-56.2 0,-31 -25.1,-56.2 -56.2,-56.2 z"
           id="path1314" />
        <path
           style="fill:#2d2d2d"
           inkscape:connector-curvature="0"
           d="m 155.6,141.5 c -24.9,0 -45.2,-20.2 -45.2,-45.2 0,-24.9 20.2,-45.2 45.2,-45.2 24.9,0 45.2,20.2 45.2,45.2 -0.1,25 -20.3,45.2 -45.2,45.2 z m 0,-101.4 c -31,0 -56.2,25.2 -56.2,56.2 0,31 25.2,56.2 56.2,56.2 31,0 56.2,-25.2 56.2,-56.2 0,-31 -25.2,-56.2 -56.2,-56.2 z"
           id="path1316" />
        <path
           style="fill:#3c3c3c"
           inkscape:connector-curvature="0"
           d="m 156,141.9 c -24.9,0 -45.2,-20.2 -45.2,-45.2 0,-24.9 20.2,-45.2 45.2,-45.2 24.9,0 45.2,20.2 45.2,45.2 -0.1,25 -20.3,45.2 -45.2,45.2 z m 0,-101.3 c -31,0 -56.2,25.2 -56.2,56.2 0,31 25.2,56.2 56.2,56.2 31,0 56.2,-25.2 56.2,-56.2 C 212.2,65.7 187,40.6 156,40.6 z"
           id="path1318" />
        <path
           style="fill:#4b4b4b"
           inkscape:connector-curvature="0"
           d="m 156.4,142.3 c -24.9,0 -45.2,-20.2 -45.2,-45.2 0,-24.9 20.2,-45.2 45.2,-45.2 24.9,0 45.2,20.2 45.2,45.2 0,25 -20.2,45.2 -45.2,45.2 z m 0,-101.3 c -31,0 -56.2,25.2 -56.2,56.2 0,31 25.2,56.2 56.2,56.2 31,0 56.2,-25.2 56.2,-56.2 0,-31 -25.1,-56.2 -56.2,-56.2 z"
           id="path1320" />
        <path
           style="fill:#5a5a5a"
           inkscape:connector-curvature="0"
           d="m 156.8,142.8 c -24.9,0 -45.2,-20.2 -45.2,-45.2 0,-24.9 20.2,-45.2 45.2,-45.2 24.9,0 45.2,20.2 45.2,45.2 0,25 -20.2,45.2 -45.2,45.2 z m 0,-101.4 c -31,0 -56.2,25.2 -56.2,56.2 0,31 25.2,56.2 56.2,56.2 31,0 56.2,-25.2 56.2,-56.2 0,-31 -25.1,-56.2 -56.2,-56.2 z"
           id="path1322" />
        <path
           style="fill:#696969"
           inkscape:connector-curvature="0"
           d="m 157.3,143.2 c -24.9,0 -45.2,-20.2 -45.2,-45.2 0,-24.9 20.2,-45.2 45.2,-45.2 24.9,0 45.2,20.2 45.2,45.2 -0.1,25 -20.3,45.2 -45.2,45.2 z m 0,-101.4 c -31,0 -56.2,25.2 -56.2,56.2 0,31 25.2,56.2 56.2,56.2 31,0 56.2,-25.2 56.2,-56.2 0,-31 -25.2,-56.2 -56.2,-56.2 z"
           id="path1324" />
        <path
           style="fill:#787878"
           inkscape:connector-curvature="0"
           d="m 157.7,143.6 c -24.9,0 -45.2,-20.2 -45.2,-45.2 0,-24.9 20.2,-45.2 45.2,-45.2 24.9,0 45.2,20.2 45.2,45.2 0,25 -20.3,45.2 -45.2,45.2 z m 0,-101.3 c -31,0 -56.2,25.2 -56.2,56.2 0,31 25.2,56.2 56.2,56.2 31,0 56.2,-25.2 56.2,-56.2 0,-31.1 -25.2,-56.2 -56.2,-56.2 z"
           id="path1326" />
        <path
           style="fill:#878787"
           inkscape:connector-curvature="0"
           d="m 158.1,144.1 c -24.9,0 -45.2,-20.2 -45.2,-45.2 0,-24.9 20.2,-45.2 45.2,-45.2 24.9,0 45.2,20.2 45.2,45.2 0,24.9 -20.2,45.2 -45.2,45.2 z m 0,-101.4 c -31,0 -56.2,25.2 -56.2,56.2 0,31 25.2,56.2 56.2,56.2 31,0 56.2,-25.2 56.2,-56.2 0,-31 -25.1,-56.2 -56.2,-56.2 z"
           id="path1328" />
        <path
           style="fill:#969696"
           inkscape:connector-curvature="0"
           d="m 158.6,144.5 c -24.9,0 -45.2,-20.2 -45.2,-45.2 0,-24.9 20.2,-45.2 45.2,-45.2 24.9,0 45.2,20.2 45.2,45.2 -0.1,25 -20.3,45.2 -45.2,45.2 z m 0,-101.4 c -31,0 -56.2,25.2 -56.2,56.2 0,31 25.2,56.2 56.2,56.2 31,0 56.2,-25.2 56.2,-56.2 0,-31 -25.2,-56.2 -56.2,-56.2 z"
           id="path1330" />
        <path
           style="fill:#a5a5a5"
           inkscape:connector-curvature="0"
           d="m 159,144.9 c -24.9,0 -45.2,-20.2 -45.2,-45.2 0,-24.9 20.2,-45.2 45.2,-45.2 24.9,0 45.2,20.2 45.2,45.2 -0.1,25 -20.3,45.2 -45.2,45.2 z m 0,-101.3 c -31,0 -56.2,25.2 -56.2,56.2 0,31 25.2,56.2 56.2,56.2 31,0 56.2,-25.2 56.2,-56.2 C 215.2,68.7 190,43.6 159,43.6 z"
           id="path1332" />
        <path
           style="fill:#b4b4b4"
           inkscape:connector-curvature="0"
           d="m 159.4,145.3 c -24.9,0 -45.2,-20.2 -45.2,-45.2 0,-24.9 20.2,-45.2 45.2,-45.2 24.9,0 45.2,20.2 45.2,45.2 0,25 -20.3,45.2 -45.2,45.2 z m 0,-101.3 c -31,0 -56.2,25.2 -56.2,56.2 0,31 25.2,56.2 56.2,56.2 31,0 56.2,-25.2 56.2,-56.2 C 215.6,69.1 190.4,44 159.4,44 z"
           id="path1334" />
        <path
           style="fill:#c3c3c3"
           inkscape:connector-curvature="0"
           d="m 159.8,145.8 c -24.9,0 -45.2,-20.2 -45.2,-45.2 0,-24.9 20.2,-45.2 45.2,-45.2 24.9,0 45.2,20.2 45.2,45.2 0,25 -20.2,45.2 -45.2,45.2 z m 0,-101.4 c -31,0 -56.2,25.2 -56.2,56.2 0,31 25.2,56.2 56.2,56.2 31,0 56.2,-25.2 56.2,-56.2 0,-31 -25.1,-56.2 -56.2,-56.2 z"
           id="path1336" />
        <path
           style="fill:#d2d2d2"
           inkscape:connector-curvature="0"
           d="m 160.3,146.2 c -24.9,0 -45.2,-20.2 -45.2,-45.2 0,-24.9 20.2,-45.2 45.2,-45.2 24.9,0 45.2,20.2 45.2,45.2 -0.1,25 -20.3,45.2 -45.2,45.2 z m 0,-101.4 c -31,0 -56.2,25.2 -56.2,56.2 0,31 25.2,56.2 56.2,56.2 31,0 56.2,-25.2 56.2,-56.2 0,-31 -25.2,-56.2 -56.2,-56.2 z"
           id="path1338" />
        <path
           style="fill:#e1e1e1"
           inkscape:connector-curvature="0"
           d="m 160.7,146.6 c -24.9,0 -45.2,-20.2 -45.2,-45.2 0,-24.9 20.2,-45.2 45.2,-45.2 24.9,0 45.2,20.2 45.2,45.2 -0.1,25 -20.3,45.2 -45.2,45.2 z m 0,-101.3 c -31,0 -56.2,25.2 -56.2,56.2 0,31 25.2,56.2 56.2,56.2 31,0 56.2,-25.2 56.2,-56.2 0,-31.1 -25.2,-56.2 -56.2,-56.2 z"
           id="path1340" />
        <path
           style="fill:#f0f0f0"
           inkscape:connector-curvature="0"
           d="m 161.1,147.1 c -24.9,0 -45.2,-20.2 -45.2,-45.2 0,-24.9 20.2,-45.2 45.2,-45.2 24.9,0 45.2,20.2 45.2,45.2 0,24.9 -20.2,45.2 -45.2,45.2 z m 0,-101.4 c -31,0 -56.2,25.2 -56.2,56.2 0,31 25.2,56.2 56.2,56.2 31,0 56.2,-25.2 56.2,-56.2 0,-31 -25.1,-56.2 -56.2,-56.2 z"
           id="path1342" />
        <path
           style="fill:#ffffff"
           inkscape:connector-curvature="0"
           d="m 161.5,147.5 c -24.9,0 -45.2,-20.2 -45.2,-45.2 0,-24.9 20.2,-45.2 45.2,-45.2 24.9,0 45.2,20.2 45.2,45.2 0,25 -20.2,45.2 -45.2,45.2 z m 0,-101.4 c -31,0 -56.2,25.2 -56.2,56.2 0,31 25.2,56.2 56.2,56.2 31,0 56.2,-25.2 56.2,-56.2 0,-31 -25.1,-56.2 -56.2,-56.2 z"
           id="path1344" />
      </g>
    </g>
    <g
       transform="matrix(0.6097774,0,0,0.6097774,-58.078005,959.48697)"
       id="g1346">
      <linearGradient
         id="linearGradient4712"
         gradientUnits="userSpaceOnUse"
         x1="176.8598"
         y1="134.16789"
         x2="131.6992"
         y2="55.947399">
        <stop
           offset="9.507450e-02"
           style="stop-color:#D5D8DA"
           id="stop4714" />
        <stop
           offset="0.9342"
           style="stop-color:#FFFFFF"
           id="stop4716" />
      </linearGradient>
      <circle
         style="fill:url(#SVGID_12_)"
         sodipodi:ry="45.200001"
         sodipodi:rx="45.200001"
         sodipodi:cy="95.099998"
         sodipodi:cx="154.3"
         cx="154.3"
         cy="95.099998"
         r="45.200001"
         id="circle1353" />
      <linearGradient
         id="linearGradient4719"
         gradientUnits="userSpaceOnUse"
         x1="189.4364"
         y1="132.02541"
         x2="141.366"
         y2="81.483398">
        <stop
           offset="0.5363"
           style="stop-color:#000000"
           id="stop4721" />
        <stop
           offset="0.6591"
           style="stop-color:#FFFFFF"
           id="stop4723" />
      </linearGradient>
      <path
         style="opacity:0.2;fill:url(#SVGID_13_)"
         inkscape:connector-curvature="0"
         d="m 199.4,95.1 c 0,-12.4 -5,-23.6 -13.1,-31.8 l -0.9,0.9 c 7.9,7.9 12.7,18.9 12.7,30.9 0,24.2 -19.7,43.9 -43.9,43.9 -12,0 -22.9,-4.9 -30.9,-12.7 l -0.9,0.9 c 8.2,8.1 19.4,13.1 31.8,13.1 25,-0.1 45.2,-20.3 45.2,-45.2 z"
         id="path1360" />
    </g>
    <ellipse
       style="fill:#215074;fill-opacity:1"
       cx="33.358662"
       cy="1028.5912"
       id="circle1362"
       rx="3.0009909"
       ry="2.7990816" />
    <path
       id="path1370"
       d="m 47.329279,1006.6226 c -0.818455,0 -1.54597,0.2537 -2.0916,0.7636 -0.545637,0.5089 -0.818453,1.1876 -0.818453,1.9509 l 0,7.2098 5.911042,0 0,5.5135 -5.911042,0 0,9.3298 -5.911049,0 0,-22.0531 c 0,-1.1029 0.272702,-2.2053 0.727529,-3.2235 0.454686,-1.0176 1.091254,-1.866 1.909719,-2.6294 0.818445,-0.7632 1.727836,-1.357 2.819103,-1.781 1.09127,-0.4242 2.18254,-0.6785 3.455688,-0.6785 1.182208,0 2.364417,0.2534 3.455683,0.6785 1.091271,0.424 2.000663,1.0178 2.819116,1.781 0.818455,0.7634 1.455026,1.6118 1.909725,2.6294 0.454692,1.0182 0.727508,2.0357 0.727508,3.2235 l -5.91104,0 c 0,-0.7633 -0.272816,-1.442 -0.818454,-1.9509 -0.727513,-0.5089 -1.455027,-0.7636 -2.273475,-0.7636 z"
       inkscape:connector-curvature="0"
       style="fill:#28465d;fill-opacity:1" />
    <path
       id="path1370-4"
       d="m 26.685493,1006.6226 c -0.818454,0 -1.545969,0.2537 -2.091599,0.7636 -0.545637,0.5089 -0.818454,1.1876 -0.818454,1.9509 -0.109454,9.8841 0,12.7233 0,12.7233 l 0,9.3298 -5.911048,0 c -0.02615,-9.9167 0.05492,-19.8338 -0.03746,-29.7503 1.203492,-0.5058 6.774052,-0.6199 8.949499,-0.6152 1.415415,0.043 2.521755,0.2632 3.455683,0.6785 1.091271,0.424 2.000663,1.0178 2.819116,1.781 0.818454,0.7634 1.455025,1.6118 1.909725,2.6294 0.293937,0.7386 0.176431,2.176 0.12479,3.1444 -0.05165,0.9683 -0.365014,2.4908 -0.757622,3.1541 -0.39261,0.6633 -1.375911,1.6276 -2.293119,2.2769 -0.917208,0.6493 -2.933837,1.0763 -4.803185,1.0551 -1.994552,-0.022 -3.501933,-0.2918 -3.501933,-0.2918 0,0 -1.894235,-5.5423 0.0475,-6.0314 0.05144,1.4839 1.804753,1.8266 2.830052,1.8278 1.0253,0 1.999271,-0.3362 2.468718,-0.6807 0.469448,-0.3444 0.665305,-0.6504 0.701264,-1.2309 0.03596,-0.5805 -0.272816,-1.442 -0.818454,-1.9509 -0.727514,-0.5089 -1.455028,-0.7636 -2.273476,-0.7636 z"
       inkscape:connector-curvature="0"
       style="fill:#28628e;fill-opacity:1"
       sodipodi:nodetypes="scccccccccczzzscczzzcs" />
    <text
       xml:space="preserve"
       style="font-style:normal;font-weight:normal;font-size:23.79645729px;line-height:100%;font-family:Sans;letter-spacing:0px;word-spacing:0px;fill:#000000;fill-opacity:1;stroke:none;stroke-width:1px;stroke-linecap:butt;stroke-linejoin:miter;stroke-opacity:1"
       x="85.344963"
       y="1014.45"
       id="text4249"
       sodipodi:linespacing="100%"><tspan
         sodipodi:role="line"
         id="tspan4251"
         x="85.344963"
         y="1014.45"
         style="font-style:normal;font-variant:normal;font-weight:normal;font-stretch:normal;line-height:100%;font-family:Sans;-inkscape-font-specification:Sans;fill:#282e92;fill-opacity:1">progressive</tspan><tspan
         sodipodi:role="line"
         x="85.344963"
         y="1038.2465"
         id="tspan4253"
         style="font-style:normal;font-variant:normal;font-weight:normal;font-stretch:normal;line-height:100%;font-family:Sans;-inkscape-font-specification:Sans;fill:#282e92;fill-opacity:1">.fund</tspan></text>
  </g>
</svg>
