<?xml version="1.0" encoding="UTF-8" standalone="no"?>
<!-- Created with Inkscape (http://www.inkscape.org/) -->

<svg
   xmlns:dc="http://purl.org/dc/elements/1.1/"
   xmlns:cc="http://creativecommons.org/ns#"
   xmlns:rdf="http://www.w3.org/1999/02/22-rdf-syntax-ns#"
   xmlns:svg="http://www.w3.org/2000/svg"
   xmlns="http://www.w3.org/2000/svg"
   xmlns:sodipodi="http://sodipodi.sourceforge.net/DTD/sodipodi-0.dtd"
   xmlns:inkscape="http://www.inkscape.org/namespaces/inkscape"
   width="210mm"
   height="297mm"
   viewBox="0 0 744.09448819 1052.3622047"
   id="svg10665"
   version="1.1"
   inkscape:version="0.91 r13725"
   sodipodi:docname="navbar-title.svg"
   inkscape:export-filename="/home/user/dev/if.then.fund/branding/progressive.fund/static/navbar-title.png"
   inkscape:export-xdpi="19.010979"
   inkscape:export-ydpi="19.010979">
  <defs
     id="defs10667">
    <clipPath
       clipPathUnits="userSpaceOnUse"
       id="clipPath5282">
      <path
         d="m 0,0 756,0 0,586.449 -756,0 L 0,0 Z"
         id="path5284"
         inkscape:connector-curvature="0" />
    </clipPath>
    <clipPath
       clipPathUnits="userSpaceOnUse"
       id="clipPath5290">
      <path
         d="m 13.6553,597.839 196.2287,0 0,-196.228 -196.2287,0 0,196.228 z"
         id="path5292"
         inkscape:connector-curvature="0" />
    </clipPath>
    <clipPath
       clipPathUnits="userSpaceOnUse"
       id="clipPath5294">
      <path
         d="m 62.693,491.388 c 0,-15.912 6.508,-30.332 16.999,-40.738 l 0,0 0.838,0.836 c -10.265,10.184 -16.626,24.3 -16.626,39.902 l 0,0 c 0,31.039 25.164,56.201 56.202,56.201 l 0,0 c 15.602,0 29.718,-6.359 39.901,-16.625 l 0,0 0.837,0.838 c -10.407,10.49 -24.826,17 -40.738,17 l 0,0 c -31.658,0 -57.413,-25.756 -57.413,-57.414"
         id="path5296"
         inkscape:connector-curvature="0" />
    </clipPath>
    <linearGradient
       x1="0"
       y1="0"
       x2="1"
       y2="0"
       gradientUnits="userSpaceOnUse"
       gradientTransform="matrix(-71.732742,68.994766,-68.994766,-71.732742,123.25,488.70312)"
       spreadMethod="pad"
       id="linearGradient5298">
      <stop
         style="stop-opacity:1;stop-color:#ffffff"
         offset="0"
         id="stop5300" />
      <stop
         style="stop-opacity:1;stop-color:#ffffff"
         offset="0.0719825"
         id="stop5302" />
      <stop
         style="stop-opacity:1;stop-color:#100f0d"
         offset="0.27190307"
         id="stop5304" />
      <stop
         style="stop-opacity:1;stop-color:#100f0d"
         offset="0.272083"
         id="stop5306" />
      <stop
         style="stop-opacity:1;stop-color:#100f0d"
         offset="1"
         id="stop5308" />
    </linearGradient>
    <clipPath
       clipPathUnits="userSpaceOnUse"
       id="clipPath5328">
      <path
         d="m 63.9365,547.593 119.6715,0 0,-119.671 -119.6715,0 0,119.671 z"
         id="path5330"
         inkscape:connector-curvature="0" />
    </clipPath>
    <clipPath
       clipPathUnits="userSpaceOnUse"
       id="clipPath5332">
      <path
         d="m 120.137,547.592 c -31.037,0 -56.2,-25.161 -56.2,-56.201 l 0,0 c 0,-31.039 25.163,-56.201 56.2,-56.201 l 0,0 c 31.04,0 56.202,25.162 56.202,56.201 l 0,0 c 0,31.04 -25.162,56.201 -56.202,56.201 z M 74.985,491.391 c 0,24.938 20.215,45.155 45.152,45.155 l 0,0 c 24.938,0 45.153,-20.217 45.153,-45.155 l 0,0 c 0,-24.937 -20.215,-45.153 -45.153,-45.153 l 0,0 c -24.937,0 -45.152,20.216 -45.152,45.153"
         id="path5334"
         inkscape:connector-curvature="0" />
    </clipPath>
    <clipPath
       clipPathUnits="userSpaceOnUse"
       id="clipPath5420">
      <path
         d="m 74.985,491.391 c 0,-24.936 20.216,-45.153 45.152,-45.153 l 0,0 c 24.938,0 45.155,20.217 45.155,45.153 l 0,0 c 0,24.937 -20.217,45.155 -45.155,45.155 l 0,0 c -24.936,0 -45.152,-20.218 -45.152,-45.155"
         id="path5422"
         inkscape:connector-curvature="0" />
    </clipPath>
    <linearGradient
       x1="0"
       y1="0"
       x2="1"
       y2="0"
       gradientUnits="userSpaceOnUse"
       gradientTransform="matrix(-45.144508,78.192581,-78.192581,-45.144508,142.75,452.32812)"
       spreadMethod="pad"
       id="linearGradient5428">
      <stop
         style="stop-opacity:1;stop-color:#d7dada"
         offset="0"
         id="stop5430" />
      <stop
         style="stop-opacity:1;stop-color:#d7dada"
         offset="0.0950745"
         id="stop5432" />
      <stop
         style="stop-opacity:1;stop-color:#d7dada"
         offset="0.1004353"
         id="stop5434" />
      <stop
         style="stop-opacity:1;stop-color:#ffffff"
         offset="0.934153"
         id="stop5436" />
      <stop
         style="stop-opacity:1;stop-color:#ffffff"
         offset="1"
         id="stop5438" />
    </linearGradient>
    <clipPath
       clipPathUnits="userSpaceOnUse"
       id="clipPath5282-9">
      <path
         d="m 0,0 756,0 0,586.449 -756,0 L 0,0 Z"
         id="path5284-1"
         inkscape:connector-curvature="0" />
    </clipPath>
    <clipPath
       clipPathUnits="userSpaceOnUse"
       id="clipPath5290-8">
      <path
         d="m 13.6553,597.839 196.2287,0 0,-196.228 -196.2287,0 0,196.228 z"
         id="path5292-9"
         inkscape:connector-curvature="0" />
    </clipPath>
    <clipPath
       clipPathUnits="userSpaceOnUse"
       id="clipPath5294-4">
      <path
         d="m 62.693,491.388 c 0,-15.912 6.508,-30.332 16.999,-40.738 l 0,0 0.838,0.836 c -10.265,10.184 -16.626,24.3 -16.626,39.902 l 0,0 c 0,31.039 25.164,56.201 56.202,56.201 l 0,0 c 15.602,0 29.718,-6.359 39.901,-16.625 l 0,0 0.837,0.838 c -10.407,10.49 -24.826,17 -40.738,17 l 0,0 c -31.658,0 -57.413,-25.756 -57.413,-57.414"
         id="path5296-2"
         inkscape:connector-curvature="0" />
    </clipPath>
    <clipPath
       clipPathUnits="userSpaceOnUse"
       id="clipPath5328-6">
      <path
         d="m 63.9365,547.593 119.6715,0 0,-119.671 -119.6715,0 0,119.671 z"
         id="path5330-7"
         inkscape:connector-curvature="0" />
    </clipPath>
    <clipPath
       clipPathUnits="userSpaceOnUse"
       id="clipPath5332-1">
      <path
         d="m 120.137,547.592 c -31.037,0 -56.2,-25.161 -56.2,-56.201 l 0,0 c 0,-31.039 25.163,-56.201 56.2,-56.201 l 0,0 c 31.04,0 56.202,25.162 56.202,56.201 l 0,0 c 0,31.04 -25.162,56.201 -56.202,56.201 z M 74.985,491.391 c 0,24.938 20.215,45.155 45.152,45.155 l 0,0 c 24.938,0 45.153,-20.217 45.153,-45.155 l 0,0 c 0,-24.937 -20.215,-45.153 -45.153,-45.153 l 0,0 c -24.937,0 -45.152,20.216 -45.152,45.153"
         id="path5334-3"
         inkscape:connector-curvature="0" />
    </clipPath>
    <clipPath
       clipPathUnits="userSpaceOnUse"
       id="clipPath5420-7">
      <path
         d="m 74.985,491.391 c 0,-24.936 20.216,-45.153 45.152,-45.153 l 0,0 c 24.938,0 45.155,20.217 45.155,45.153 l 0,0 c 0,24.937 -20.217,45.155 -45.155,45.155 l 0,0 c -24.936,0 -45.152,-20.218 -45.152,-45.155"
         id="path5422-2"
         inkscape:connector-curvature="0" />
    </clipPath>
    <clipPath
       clipPathUnits="userSpaceOnUse"
       id="clipPath5282-8">
      <path
         d="m 0,0 756,0 0,586.449 -756,0 L 0,0 Z"
         id="path5284-9"
         inkscape:connector-curvature="0" />
    </clipPath>
    <clipPath
       clipPathUnits="userSpaceOnUse"
       id="clipPath5290-4">
      <path
         d="m 13.6553,597.839 196.2287,0 0,-196.228 -196.2287,0 0,196.228 z"
         id="path5292-5"
         inkscape:connector-curvature="0" />
    </clipPath>
    <clipPath
       clipPathUnits="userSpaceOnUse"
       id="clipPath5294-5">
      <path
         d="m 62.693,491.388 c 0,-15.912 6.508,-30.332 16.999,-40.738 l 0,0 0.838,0.836 c -10.265,10.184 -16.626,24.3 -16.626,39.902 l 0,0 c 0,31.039 25.164,56.201 56.202,56.201 l 0,0 c 15.602,0 29.718,-6.359 39.901,-16.625 l 0,0 0.837,0.838 c -10.407,10.49 -24.826,17 -40.738,17 l 0,0 c -31.658,0 -57.413,-25.756 -57.413,-57.414"
         id="path5296-4"
         inkscape:connector-curvature="0" />
    </clipPath>
    <clipPath
       clipPathUnits="userSpaceOnUse"
       id="clipPath5328-2">
      <path
         d="m 63.9365,547.593 119.6715,0 0,-119.671 -119.6715,0 0,119.671 z"
         id="path5330-1"
         inkscape:connector-curvature="0" />
    </clipPath>
    <clipPath
       clipPathUnits="userSpaceOnUse"
       id="clipPath5332-8">
      <path
         d="m 120.137,547.592 c -31.037,0 -56.2,-25.161 -56.2,-56.201 l 0,0 c 0,-31.039 25.163,-56.201 56.2,-56.201 l 0,0 c 31.04,0 56.202,25.162 56.202,56.201 l 0,0 c 0,31.04 -25.162,56.201 -56.202,56.201 z M 74.985,491.391 c 0,24.938 20.215,45.155 45.152,45.155 l 0,0 c 24.938,0 45.153,-20.217 45.153,-45.155 l 0,0 c 0,-24.937 -20.215,-45.153 -45.153,-45.153 l 0,0 c -24.937,0 -45.152,20.216 -45.152,45.153"
         id="path5334-5"
         inkscape:connector-curvature="0" />
    </clipPath>
    <clipPath
       clipPathUnits="userSpaceOnUse"
       id="clipPath5420-2">
      <path
         d="m 74.985,491.391 c 0,-24.936 20.216,-45.153 45.152,-45.153 l 0,0 c 24.938,0 45.155,20.217 45.155,45.153 l 0,0 c 0,24.937 -20.217,45.155 -45.155,45.155 l 0,0 c -24.936,0 -45.152,-20.218 -45.152,-45.155"
         id="path5422-8"
         inkscape:connector-curvature="0" />
    </clipPath>
  </defs>
  <sodipodi:namedview
     id="base"
     pagecolor="#ffffff"
     bordercolor="#666666"
     borderopacity="1.0"
     inkscape:pageopacity="0.0"
     inkscape:pageshadow="2"
     inkscape:zoom="1.4"
     inkscape:cx="298.96956"
     inkscape:cy="866.03062"
     inkscape:document-units="px"
     inkscape:current-layer="layer1"
     showgrid="false"
     inkscape:window-width="1551"
     inkscape:window-height="876"
     inkscape:window-x="49"
     inkscape:window-y="24"
     inkscape:window-maximized="1" />
  <metadata
     id="metadata10670">
    <rdf:RDF>
      <cc:Work
         rdf:about="">
        <dc:format>image/svg+xml</dc:format>
        <dc:type
           rdf:resource="http://purl.org/dc/dcmitype/StillImage" />
        <dc:title></dc:title>
      </cc:Work>
    </rdf:RDF>
  </metadata>
  <g
     inkscape:label="Layer 1"
     inkscape:groupmode="layer"
     id="layer1">
    <g
       id="g5274"
       transform="matrix(1.25,0,0,-1.25,85.455013,153.84955)">
      <path
         d="m 0,0 c -24.937,0 -45.152,20.216 -45.152,45.153 0,24.937 20.215,45.154 45.152,45.154 24.937,0 45.152,-20.217 45.152,-45.154 C 45.152,20.216 24.937,0 0,0 m 0,101.354 c -31.039,0 -56.201,-25.163 -56.201,-56.201 0,-31.039 25.162,-56.201 56.201,-56.201 31.039,0 56.201,25.162 56.201,56.201 0,31.038 -25.162,56.201 -56.201,56.201"
         style="fill:#847dc6;fill-opacity:1;fill-rule:nonzero;stroke:none"
         id="path5276"
         inkscape:connector-curvature="0" />
    </g>
    <g
       transform="matrix(1.25,0,0,-1.25,-64.717109,711.63883)"
       id="g10159">
      <g
         id="g5278">
        <g
           clip-path="url(#clipPath5282-8)"
           id="g5280">
          <g
             id="g5286">
            <g
               id="g5288" />
            <g
               id="g5310">
              <g
                 style="opacity:0.19999701"
                 id="g5312"
                 clip-path="url(#clipPath5290-4)">
                <g
                   id="g5314">
                  <g
                     id="g5316"
                     clip-path="url(#clipPath5294-5)">
                    <g
                       id="g5318">
                      <g
                         id="g5320">
                        <path
                           inkscape:connector-curvature="0"
                           id="path5322"
                           style="fill:url(#linearGradient5298);stroke:none"
                           d="m 62.693,491.388 c 0,-15.912 6.508,-30.332 16.999,-40.738 l 0,0 0.838,0.836 c -10.265,10.184 -16.626,24.3 -16.626,39.902 l 0,0 c 0,31.039 25.164,56.201 56.202,56.201 l 0,0 c 15.602,0 29.718,-6.359 39.901,-16.625 l 0,0 0.837,0.838 c -10.407,10.49 -24.826,17 -40.738,17 l 0,0 c -31.658,0 -57.413,-25.756 -57.413,-57.414" />
                      </g>
                    </g>
                  </g>
                </g>
              </g>
            </g>
          </g>
          <g
             id="g5324">
            <g
               id="g5326" />
            <g
               id="g5336">
              <g
                 style="opacity:0.30000299"
                 id="g5338"
                 clip-path="url(#clipPath5328-2)">
                <g
                   id="g5340">
                  <g
                     id="g5342"
                     clip-path="url(#clipPath5332-8)">
                    <g
                       id="g5344"
                       transform="translate(120.1377,547.5928)">
                      <path
                         inkscape:connector-curvature="0"
                         id="path5346"
                         style="fill:#110f0d;fill-opacity:1;fill-rule:nonzero;stroke:none"
                         d="m 0,0 c -31.038,0 -56.201,-25.162 -56.201,-56.2 0,-31.041 25.163,-56.203 56.201,-56.203 31.039,0 56.201,25.162 56.201,56.203 C 56.201,-25.162 31.039,0 0,0 m 0,-101.354 c -24.937,0 -45.152,20.216 -45.152,45.154 0,24.936 20.215,45.152 45.152,45.152 24.937,0 45.152,-20.216 45.152,-45.152 0,-24.938 -20.215,-45.154 -45.152,-45.154" />
                    </g>
                    <g
                       id="g5348"
                       transform="translate(120.5654,547.165)">
                      <path
                         inkscape:connector-curvature="0"
                         id="path5350"
                         style="fill:#161514;fill-opacity:1;fill-rule:nonzero;stroke:none"
                         d="m 0,0 c -31.038,0 -56.201,-25.162 -56.201,-56.2 0,-31.041 25.163,-56.203 56.201,-56.203 31.039,0 56.201,25.162 56.201,56.203 C 56.201,-25.162 31.039,0 0,0 m 0,-101.354 c -24.937,0 -45.153,20.216 -45.153,45.154 0,24.936 20.216,45.152 45.153,45.152 24.937,0 45.152,-20.216 45.152,-45.152 0,-24.938 -20.215,-45.154 -45.152,-45.154" />
                    </g>
                    <g
                       id="g5352"
                       transform="translate(120.9932,546.7373)">
                      <path
                         inkscape:connector-curvature="0"
                         id="path5354"
                         style="fill:#1e1c1c;fill-opacity:1;fill-rule:nonzero;stroke:none"
                         d="m 0,0 c -31.039,0 -56.201,-25.162 -56.201,-56.2 0,-31.04 25.162,-56.202 56.201,-56.202 31.039,0 56.201,25.162 56.201,56.202 C 56.201,-25.162 31.039,0 0,0 m 0,-101.354 c -24.937,0 -45.153,20.216 -45.153,45.154 0,24.936 20.216,45.153 45.153,45.153 24.937,0 45.152,-20.217 45.152,-45.153 0,-24.938 -20.215,-45.154 -45.152,-45.154" />
                    </g>
                    <g
                       id="g5356"
                       transform="translate(121.4209,546.3105)">
                      <path
                         inkscape:connector-curvature="0"
                         id="path5358"
                         style="fill:#2a2828;fill-opacity:1;fill-rule:nonzero;stroke:none"
                         d="m 0,0 c -31.039,0 -56.201,-25.162 -56.201,-56.201 0,-31.04 25.162,-56.202 56.201,-56.202 31.039,0 56.2,25.162 56.2,56.202 C 56.2,-25.162 31.039,0 0,0 m 0,-101.355 c -24.937,0 -45.154,20.216 -45.154,45.154 0,24.936 20.217,45.153 45.154,45.153 24.937,0 45.152,-20.217 45.152,-45.153 0,-24.938 -20.215,-45.154 -45.152,-45.154" />
                    </g>
                    <g
                       id="g5360"
                       transform="translate(121.8477,545.8828)">
                      <path
                         inkscape:connector-curvature="0"
                         id="path5362"
                         style="fill:#373637;fill-opacity:1;fill-rule:nonzero;stroke:none"
                         d="m 0,0 c -31.038,0 -56.2,-25.162 -56.2,-56.201 0,-31.04 25.162,-56.201 56.2,-56.201 31.039,0 56.201,25.161 56.201,56.201 C 56.201,-25.162 31.039,0 0,0 m 0,-101.355 c -24.937,0 -45.153,20.216 -45.153,45.154 0,24.936 20.216,45.153 45.153,45.153 24.937,0 45.153,-20.217 45.153,-45.153 0,-24.938 -20.216,-45.154 -45.153,-45.154" />
                    </g>
                    <g
                       id="g5364"
                       transform="translate(122.2754,545.4551)">
                      <path
                         inkscape:connector-curvature="0"
                         id="path5366"
                         style="fill:#454546;fill-opacity:1;fill-rule:nonzero;stroke:none"
                         d="m 0,0 c -31.038,0 -56.2,-25.162 -56.2,-56.201 0,-31.039 25.162,-56.201 56.2,-56.201 31.039,0 56.201,25.162 56.201,56.201 C 56.201,-25.162 31.039,0 0,0 m 0,-101.355 c -24.937,0 -45.153,20.217 -45.153,45.154 0,24.937 20.216,45.153 45.153,45.153 24.937,0 45.153,-20.216 45.153,-45.153 0,-24.937 -20.216,-45.154 -45.153,-45.154" />
                    </g>
                    <g
                       id="g5368"
                       transform="translate(122.7031,545.0283)">
                      <path
                         inkscape:connector-curvature="0"
                         id="path5370"
                         style="fill:#535456;fill-opacity:1;fill-rule:nonzero;stroke:none"
                         d="m 0,0 c -31.038,0 -56.201,-25.162 -56.201,-56.202 0,-31.039 25.163,-56.201 56.201,-56.201 31.039,0 56.2,25.162 56.2,56.201 C 56.2,-25.162 31.039,0 0,0 m 0,-101.355 c -24.937,0 -45.153,20.216 -45.153,45.153 0,24.937 20.216,45.153 45.153,45.153 24.937,0 45.153,-20.216 45.153,-45.153 0,-24.937 -20.216,-45.153 -45.153,-45.153" />
                    </g>
                    <g
                       id="g5372"
                       transform="translate(123.1299,544.6006)">
                      <path
                         inkscape:connector-curvature="0"
                         id="path5374"
                         style="fill:#626365;fill-opacity:1;fill-rule:nonzero;stroke:none"
                         d="m 0,0 c -31.038,0 -56.2,-25.162 -56.2,-56.202 0,-31.039 25.162,-56.201 56.2,-56.201 31.039,0 56.203,25.162 56.203,56.201 C 56.203,-25.162 31.039,0 0,0 m 0,-101.355 c -24.937,0 -45.152,20.216 -45.152,45.153 0,24.937 20.215,45.153 45.152,45.153 24.937,0 45.154,-20.216 45.154,-45.153 0,-24.937 -20.217,-45.153 -45.154,-45.153" />
                    </g>
                    <g
                       id="g5376"
                       transform="translate(123.5576,544.1729)">
                      <path
                         inkscape:connector-curvature="0"
                         id="path5378"
                         style="fill:#727375;fill-opacity:1;fill-rule:nonzero;stroke:none"
                         d="m 0,0 c -31.039,0 -56.2,-25.162 -56.2,-56.201 0,-31.039 25.161,-56.202 56.2,-56.202 31.039,0 56.203,25.163 56.203,56.202 C 56.203,-25.162 31.039,0 0,0 m 0,-101.355 c -24.937,0 -45.152,20.217 -45.152,45.154 0,24.937 20.215,45.152 45.152,45.152 24.937,0 45.154,-20.215 45.154,-45.152 0,-24.937 -20.217,-45.154 -45.154,-45.154" />
                    </g>
                    <g
                       id="g5380"
                       transform="translate(123.9854,543.7451)">
                      <path
                         inkscape:connector-curvature="0"
                         id="path5382"
                         style="fill:#828383;fill-opacity:1;fill-rule:nonzero;stroke:none"
                         d="m 0,0 c -31.039,0 -56.201,-25.162 -56.201,-56.201 0,-31.039 25.162,-56.202 56.201,-56.202 31.039,0 56.202,25.163 56.202,56.202 C 56.202,-25.162 31.039,0 0,0 m 0,-101.354 c -24.937,0 -45.152,20.216 -45.152,45.153 0,24.937 20.215,45.152 45.152,45.152 24.937,0 45.153,-20.215 45.153,-45.152 0,-24.937 -20.216,-45.153 -45.153,-45.153" />
                    </g>
                    <g
                       id="g5384"
                       transform="translate(124.4131,543.3174)">
                      <path
                         inkscape:connector-curvature="0"
                         id="path5386"
                         style="fill:#929393;fill-opacity:1;fill-rule:nonzero;stroke:none"
                         d="m 0,0 c -31.039,0 -56.201,-25.162 -56.201,-56.201 0,-31.038 25.162,-56.202 56.201,-56.202 31.039,0 56.202,25.164 56.202,56.202 C 56.202,-25.162 31.039,0 0,0 m 0,-101.354 c -24.937,0 -45.152,20.216 -45.152,45.153 0,24.937 20.215,45.153 45.152,45.153 24.937,0 45.153,-20.216 45.153,-45.153 0,-24.937 -20.216,-45.153 -45.153,-45.153" />
                    </g>
                    <g
                       id="g5388"
                       transform="translate(124.8408,542.8896)">
                      <path
                         inkscape:connector-curvature="0"
                         id="path5390"
                         style="fill:#a1a2a0;fill-opacity:1;fill-rule:nonzero;stroke:none"
                         d="m 0,0 c -31.039,0 -56.201,-25.162 -56.201,-56.2 0,-31.039 25.162,-56.203 56.201,-56.203 31.039,0 56.202,25.164 56.202,56.203 C 56.202,-25.162 31.039,0 0,0 m 0,-101.354 c -24.937,0 -45.152,20.216 -45.152,45.154 0,24.936 20.215,45.152 45.152,45.152 24.937,0 45.152,-20.216 45.152,-45.152 0,-24.938 -20.215,-45.154 -45.152,-45.154" />
                    </g>
                    <g
                       id="g5392"
                       transform="translate(125.2686,542.4619)">
                      <path
                         inkscape:connector-curvature="0"
                         id="path5394"
                         style="fill:#b3b2b1;fill-opacity:1;fill-rule:nonzero;stroke:none"
                         d="m 0,0 c -31.039,0 -56.201,-25.162 -56.201,-56.2 0,-31.039 25.162,-56.202 56.201,-56.202 31.039,0 56.201,25.163 56.201,56.202 C 56.201,-25.162 31.039,0 0,0 m 0,-101.354 c -24.937,0 -45.153,20.216 -45.153,45.154 0,24.936 20.216,45.152 45.153,45.152 24.937,0 45.152,-20.216 45.152,-45.152 0,-24.938 -20.215,-45.154 -45.152,-45.154" />
                    </g>
                    <g
                       id="g5396"
                       transform="translate(125.6963,542.0342)">
                      <path
                         inkscape:connector-curvature="0"
                         id="path5398"
                         style="fill:#c3c2c0;fill-opacity:1;fill-rule:nonzero;stroke:none"
                         d="m 0,0 c -31.039,0 -56.2,-25.162 -56.2,-56.2 0,-31.039 25.161,-56.202 56.2,-56.202 31.039,0 56.201,25.163 56.201,56.202 C 56.201,-25.162 31.039,0 0,0 m 0,-101.354 c -24.937,0 -45.153,20.216 -45.153,45.154 0,24.936 20.216,45.153 45.153,45.153 24.937,0 45.152,-20.217 45.152,-45.153 0,-24.938 -20.215,-45.154 -45.152,-45.154" />
                    </g>
                    <g
                       id="g5400"
                       transform="translate(126.124,541.6074)">
                      <path
                         inkscape:connector-curvature="0"
                         id="path5402"
                         style="fill:#d3d3d2;fill-opacity:1;fill-rule:nonzero;stroke:none"
                         d="m 0,0 c -31.039,0 -56.201,-25.162 -56.201,-56.201 0,-31.039 25.162,-56.202 56.201,-56.202 31.039,0 56.201,25.163 56.201,56.202 C 56.201,-25.162 31.039,0 0,0 m 0,-101.354 c -24.937,0 -45.153,20.215 -45.153,45.153 0,24.936 20.216,45.153 45.153,45.153 24.937,0 45.152,-20.217 45.152,-45.153 0,-24.938 -20.215,-45.153 -45.152,-45.153" />
                    </g>
                    <g
                       id="g5404"
                       transform="translate(126.5518,541.1797)">
                      <path
                         inkscape:connector-curvature="0"
                         id="path5406"
                         style="fill:#e3e3e1;fill-opacity:1;fill-rule:nonzero;stroke:none"
                         d="m 0,0 c -31.039,0 -56.201,-25.162 -56.201,-56.201 0,-31.039 25.162,-56.202 56.201,-56.202 31.038,0 56.201,25.163 56.201,56.202 C 56.201,-25.162 31.038,0 0,0 m 0,-101.354 c -24.937,0 -45.154,20.215 -45.154,45.153 0,24.936 20.217,45.153 45.154,45.153 24.937,0 45.152,-20.217 45.152,-45.153 0,-24.938 -20.215,-45.153 -45.152,-45.153" />
                    </g>
                    <g
                       id="g5408"
                       transform="translate(126.9785,540.752)">
                      <path
                         inkscape:connector-curvature="0"
                         id="path5410"
                         style="fill:#f4f3f3;fill-opacity:1;fill-rule:nonzero;stroke:none"
                         d="m 0,0 c -31.039,0 -56.2,-25.162 -56.2,-56.201 0,-31.039 25.161,-56.201 56.2,-56.201 31.039,0 56.202,25.162 56.202,56.201 C 56.202,-25.162 31.039,0 0,0 m 0,-101.354 c -24.937,0 -45.153,20.216 -45.153,45.153 0,24.936 20.216,45.153 45.153,45.153 24.937,0 45.153,-20.217 45.153,-45.153 0,-24.937 -20.216,-45.153 -45.153,-45.153" />
                    </g>
                    <g
                       id="g5412"
                       transform="translate(127.4063,540.3242)">
                      <path
                         inkscape:connector-curvature="0"
                         id="path5414"
                         style="fill:#ffffff;fill-opacity:1;fill-rule:nonzero;stroke:none"
                         d="m 0,0 c -31.039,0 -56.2,-25.162 -56.2,-56.201 0,-31.039 25.161,-56.201 56.2,-56.201 31.039,0 56.202,25.162 56.202,56.201 C 56.202,-25.162 31.039,0 0,0 m 0,-101.354 c -24.937,0 -45.153,20.216 -45.153,45.153 0,24.937 20.216,45.153 45.153,45.153 24.937,0 45.153,-20.216 45.153,-45.153 0,-24.937 -20.216,-45.153 -45.153,-45.153" />
                    </g>
                  </g>
                </g>
              </g>
            </g>
          </g>
        </g>
      </g>
      <g
         id="g5416">
        <g
           clip-path="url(#clipPath5420-2)"
           id="g5418">
          <g
             id="g5424">
            <g
               id="g5426">
              <path
                 inkscape:connector-curvature="0"
                 id="path5440"
                 style="fill:url(#linearGradient5428);stroke:none"
                 d="m 74.985,491.391 c 0,-24.936 20.216,-45.153 45.152,-45.153 l 0,0 c 24.938,0 45.155,20.217 45.155,45.153 l 0,0 c 0,24.937 -20.217,45.155 -45.155,45.155 l 0,0 c -24.936,0 -45.152,-20.218 -45.152,-45.155" />
            </g>
          </g>
        </g>
      </g>
    </g>
    <g
       id="g5740"
       transform="matrix(1.25,0,0,-1.25,98.998763,79.843176)">
      <path
         d="m 0,0 c -0.798,0 -1.472,-0.275 -2.023,-0.825 -0.551,-0.55 -0.825,-1.224 -0.825,-2.023 l 0,-11.39 5.695,0 0,-5.696 -5.695,0 0,-17.084 -5.694,0 0,34.17 c 0,1.177 0.226,2.289 0.683,3.332 0.456,1.044 1.063,1.947 1.822,2.705 0.759,0.759 1.661,1.369 2.704,1.824 C -2.288,5.468 -1.178,5.696 0,5.696 1.177,5.696 2.288,5.468 3.332,5.013 4.375,4.558 5.277,3.948 6.035,3.189 6.795,2.431 7.404,1.528 7.859,0.484 8.316,-0.559 8.543,-1.671 8.543,-2.848 l -5.696,0 c 0,0.799 -0.276,1.473 -0.826,2.023 C 1.473,-0.275 0.799,0 0,0"
         style="fill:#4449a6;fill-opacity:1;fill-rule:nonzero;stroke:none"
         id="path5742"
         inkscape:connector-curvature="0" />
    </g>
    <g
       id="g5744"
       transform="matrix(1.25,0,0,-1.25,70.506263,122.47993)">
      <path
         d="m 0,0 c 0,-1.544 -1.253,-2.797 -2.798,-2.797 -1.545,0 -2.796,1.253 -2.796,2.797 0,1.546 1.251,2.799 2.796,2.799 C -1.253,2.799 0,1.546 0,0"
         style="fill:#6260b6;fill-opacity:1;fill-rule:nonzero;stroke:none"
         id="path5746"
         inkscape:connector-curvature="0" />
    </g>
    <g
       id="g5748"
       transform="matrix(1.25,0,0,-1.25,77.913513,96.674176)">
      <path
         d="M 0,0 C 0,-0.75 -0.278,-1.385 -0.831,-1.902 -1.386,-2.421 -2.063,-2.68 -2.866,-2.68 -3.669,-2.68 -4.348,-2.421 -4.9,-1.902 -5.454,-1.385 -5.731,-0.75 -5.731,0 l 0,11.255 c 0,0.751 0.277,1.385 0.831,1.903 0.552,0.517 1.231,0.777 2.034,0.777 0.803,0 1.48,-0.26 2.035,-0.777 C -0.278,12.64 0,12.006 0,11.255 L 0,0 Z m 5.043,14.391 c -0.459,0.982 -1.07,1.831 -1.834,2.546 -0.765,0.713 -1.672,1.286 -2.722,1.714 -1.052,0.429 -2.169,0.643 -3.353,0.643 -1.185,0 -2.302,-0.214 -3.353,-0.643 -1.052,-0.428 -1.958,-1.001 -2.722,-1.714 -0.765,-0.715 -1.374,-1.564 -1.834,-2.546 -0.459,-0.984 -0.687,-2.029 -0.687,-3.136 l 0,-7.434 -0.029,0 0.021,-20.819 5.683,0 -0.022,9.458 c 0.932,-0.325 1.91,-0.498 2.943,-0.498 1.184,0 2.301,0.214 3.353,0.642 1.05,0.429 1.957,1 2.722,1.715 0.764,0.714 1.375,1.562 1.834,2.545 C 5.502,-2.153 5.73,-1.107 5.73,0 l 0,11.255 c 0,1.107 -0.228,2.152 -0.687,3.136"
         style="fill:#847dc6;fill-opacity:1;fill-rule:nonzero;stroke:none"
         id="path5750"
         inkscape:connector-curvature="0" />
    </g>
    <g
       transform="matrix(2.3326731,0,0,-2.3326731,-244.10515,1202.0429)"
       id="g10030"
       style="fill:#ffffff;fill-opacity:1">
      <g
         transform="translate(327.499,468.6182)"
         id="g6168"
         style="fill:#ffffff;fill-opacity:1">
        <path
           inkscape:connector-curvature="0"
           id="path6170"
           style="fill:#ffffff;fill-opacity:1;fill-rule:nonzero;stroke:none"
           d="m 0,0 c 0,-1.117 -0.908,-2.027 -2.025,-2.027 -1.121,0 -2.03,0.91 -2.03,2.027 0,1.119 0.909,2.032 2.03,2.032 C -0.908,2.032 0,1.119 0,0" />
      </g>
      <g
         transform="translate(204.9307,481.8662)"
         id="g6172"
         style="fill:#ffffff;fill-opacity:1">
        <path
           inkscape:connector-curvature="0"
           id="path6174"
           style="fill:#ffffff;fill-opacity:1;fill-rule:nonzero;stroke:none"
           d="m 0,0 c -0.316,0.312 -0.732,0.467 -1.255,0.467 -0.548,0 -1.012,-0.191 -1.39,-0.568 -0.377,-0.378 -0.57,-0.843 -0.57,-1.391 l 0,-13.904 -3.912,0 0,19.583 2.857,0 0,-0.624 c 0.441,0.259 0.922,0.46 1.43,0.608 0.51,0.141 1.037,0.212 1.585,0.212 1.176,0 2.26,-0.324 3.252,-0.975 L 0,0 Z" />
      </g>
      <g
         transform="translate(215.1543,480.374)"
         id="g6176"
         style="fill:#ffffff;fill-opacity:1">
        <path
           inkscape:connector-curvature="0"
           id="path6178"
           style="fill:#ffffff;fill-opacity:1;fill-rule:nonzero;stroke:none"
           d="m 0,0 c 0,0.548 -0.191,1.014 -0.569,1.392 -0.378,0.377 -0.844,0.567 -1.39,0.567 -0.549,0 -1.014,-0.19 -1.391,-0.567 C -3.728,1.014 -3.918,0.548 -3.918,0 l 0,-8.222 c 0,-0.548 0.19,-1.011 0.568,-1.389 0.377,-0.381 0.842,-0.57 1.391,-0.57 0.546,0 1.012,0.189 1.39,0.57 C -0.191,-9.233 0,-8.77 0,-8.222 L 0,0 Z m -1.959,5.875 c 0.808,0 1.574,-0.153 2.29,-0.471 C 1.049,5.094 1.67,4.674 2.188,4.153 2.713,3.63 3.134,3.01 3.445,2.291 3.758,1.574 3.913,0.812 3.913,0 l 0,-8.222 c 0,-0.809 -0.155,-1.575 -0.468,-2.294 -0.311,-0.715 -0.732,-1.334 -1.257,-1.86 -0.518,-0.521 -1.139,-0.938 -1.857,-1.253 -0.716,-0.313 -1.482,-0.469 -2.29,-0.469 -0.812,0 -1.575,0.156 -2.294,0.469 -0.716,0.315 -1.337,0.732 -1.86,1.253 -0.52,0.526 -0.939,1.145 -1.251,1.86 -0.315,0.719 -0.472,1.485 -0.472,2.294 l 0,8.222 c 0,0.812 0.157,1.574 0.472,2.291 0.312,0.719 0.731,1.339 1.251,1.862 0.523,0.521 1.144,0.941 1.86,1.251 0.719,0.318 1.482,0.471 2.294,0.471" />
      </g>
      <g
         transform="translate(229.6924,480.374)"
         id="g6180"
         style="fill:#ffffff;fill-opacity:1">
        <path
           inkscape:connector-curvature="0"
           id="path6182"
           style="fill:#ffffff;fill-opacity:1;fill-rule:nonzero;stroke:none"
           d="m 0,0 c 0,0.548 -0.191,1.014 -0.568,1.392 -0.38,0.377 -0.843,0.567 -1.39,0.567 -0.549,0 -1.014,-0.19 -1.392,-0.567 C -3.727,1.014 -3.917,0.548 -3.917,0 l 0,-8.222 c 0,-0.548 0.19,-1.011 0.567,-1.389 0.378,-0.381 0.843,-0.57 1.392,-0.57 0.547,0 1.01,0.189 1.39,0.57 C -0.191,-9.233 0,-8.77 0,-8.222 L 0,0 Z m 3.918,-16.057 c 0,-0.806 -0.159,-1.573 -0.473,-2.29 -0.313,-0.717 -0.732,-1.34 -1.251,-1.863 -0.523,-0.519 -1.143,-0.934 -1.86,-1.251 -0.721,-0.31 -1.483,-0.472 -2.292,-0.472 -0.812,0 -1.574,0.162 -2.29,0.472 -0.719,0.317 -1.34,0.732 -1.865,1.251 -0.519,0.523 -0.939,1.146 -1.25,1.863 -0.313,0.717 -0.472,1.484 -0.472,2.29 l 3.918,0 c 0,-0.546 0.19,-1.012 0.567,-1.389 0.378,-0.378 0.843,-0.569 1.392,-0.569 0.547,0 1.01,0.191 1.39,0.569 0.377,0.377 0.568,0.843 0.568,1.389 l 0,2.313 c -0.627,-0.235 -1.279,-0.354 -1.958,-0.354 -0.812,0 -1.574,0.156 -2.29,0.469 -0.719,0.315 -1.34,0.732 -1.865,1.253 -0.519,0.526 -0.939,1.145 -1.25,1.86 -0.313,0.719 -0.472,1.485 -0.472,2.294 l 0,8.222 c 0,0.812 0.159,1.574 0.472,2.291 0.311,0.719 0.731,1.339 1.25,1.862 0.525,0.521 1.146,0.941 1.865,1.251 0.716,0.318 1.478,0.471 2.29,0.471 0.547,0 1.076,-0.07 1.586,-0.212 C 0.135,5.516 0.612,5.314 1.057,5.055 l 0,0.624 2.861,0 0,-21.736 z" />
      </g>
      <g
         transform="translate(243.4375,481.8662)"
         id="g6184"
         style="fill:#ffffff;fill-opacity:1">
        <path
           inkscape:connector-curvature="0"
           id="path6186"
           style="fill:#ffffff;fill-opacity:1;fill-rule:nonzero;stroke:none"
           d="m 0,0 c -0.312,0.312 -0.733,0.467 -1.253,0.467 -0.551,0 -1.013,-0.191 -1.39,-0.568 -0.38,-0.378 -0.569,-0.843 -0.569,-1.391 l 0,-13.904 -3.917,0 0,19.583 2.859,0 0,-0.624 c 0.446,0.259 0.92,0.46 1.43,0.608 0.51,0.141 1.036,0.212 1.587,0.212 1.177,0 2.259,-0.324 3.248,-0.975 L 0,0 Z" />
      </g>
      <g
         transform="translate(249.7422,478.417)"
         id="g6188"
         style="fill:#ffffff;fill-opacity:1">
        <path
           inkscape:connector-curvature="0"
           id="path6190"
           style="fill:#ffffff;fill-opacity:1;fill-rule:nonzero;stroke:none"
           d="m 0,0 3.919,0 0,1.957 C 3.919,2.505 3.727,2.971 3.35,3.349 2.972,3.726 2.506,3.916 1.959,3.916 1.412,3.916 0.945,3.726 0.567,3.349 0.189,2.971 0,2.505 0,1.957 L 0,0 Z m 1.959,-8.224 c 0.547,0 1.013,0.189 1.391,0.57 0.377,0.378 0.569,0.842 0.569,1.389 l 3.914,0 C 7.833,-7.074 7.679,-7.84 7.367,-8.559 7.05,-9.274 6.632,-9.893 6.112,-10.419 5.588,-10.94 4.967,-11.357 4.25,-11.672 c -0.719,-0.313 -1.479,-0.469 -2.291,-0.469 -0.807,0 -1.57,0.156 -2.287,0.469 -0.721,0.315 -1.339,0.732 -1.862,1.253 -0.525,0.526 -0.942,1.145 -1.255,1.86 -0.312,0.719 -0.467,1.485 -0.467,2.294 l 0,8.222 c 0,0.812 0.155,1.574 0.467,2.291 0.313,0.719 0.73,1.339 1.255,1.862 0.523,0.521 1.141,0.941 1.862,1.251 0.717,0.318 1.48,0.471 2.287,0.471 0.812,0 1.572,-0.153 2.291,-0.471 C 4.967,7.051 5.588,6.631 6.112,6.11 6.632,5.587 7.05,4.967 7.367,4.248 7.679,3.531 7.833,2.769 7.833,1.957 l 0,-4.895 -7.833,0 0,-3.327 c 0,-0.547 0.189,-1.011 0.567,-1.389 0.378,-0.381 0.845,-0.57 1.392,-0.57" />
      </g>
      <g
         transform="translate(263.8408,480.374)"
         id="g6192"
         style="fill:#ffffff;fill-opacity:1">
        <path
           inkscape:connector-curvature="0"
           id="path6194"
           style="fill:#ffffff;fill-opacity:1;fill-rule:nonzero;stroke:none"
           d="M 0,0 C 0,-0.495 0.197,-0.904 0.59,-1.233 0.98,-1.56 1.463,-1.855 2.038,-2.131 2.614,-2.408 3.237,-2.696 3.917,-2.995 4.597,-3.296 5.225,-3.673 5.8,-4.129 6.372,-4.588 6.856,-5.143 7.248,-5.796 7.64,-6.447 7.833,-7.259 7.833,-8.222 c 0,-0.809 -0.155,-1.575 -0.469,-2.294 -0.313,-0.715 -0.728,-1.334 -1.254,-1.86 -0.522,-0.521 -1.142,-0.938 -1.86,-1.253 -0.717,-0.313 -1.479,-0.469 -2.288,-0.469 -0.812,0 -1.573,0.156 -2.295,0.469 -0.717,0.315 -1.339,0.732 -1.858,1.253 -0.524,0.526 -0.939,1.145 -1.256,1.86 -0.31,0.719 -0.466,1.485 -0.466,2.294 l 3.913,0 c 0,-0.548 0.19,-1.011 0.568,-1.389 0.382,-0.381 0.843,-0.57 1.394,-0.57 0.548,0 1.008,0.189 1.388,0.57 0.379,0.378 0.567,0.841 0.567,1.389 0,0.496 -0.194,0.904 -0.586,1.234 -0.393,0.326 -0.876,0.632 -1.449,0.92 -0.573,0.288 -1.201,0.577 -1.882,0.88 -0.679,0.301 -1.304,0.679 -1.879,1.136 -0.576,0.458 -1.058,1.012 -1.449,1.664 -0.391,0.653 -0.585,1.477 -0.585,2.469 0,0.807 0.156,1.566 0.466,2.27 0.317,0.705 0.74,1.317 1.278,1.84 0.532,0.525 1.154,0.934 1.857,1.235 C 0.396,5.728 1.15,5.875 1.962,5.875 2.771,5.875 3.533,5.722 4.25,5.404 4.968,5.094 5.588,4.674 6.11,4.153 6.636,3.63 7.051,3.01 7.364,2.291 7.678,1.574 7.833,0.812 7.833,0 L 3.917,0 C 3.917,0.548 3.729,1.014 3.35,1.392 2.97,1.769 2.51,1.959 1.962,1.959 1.411,1.959 0.95,1.769 0.568,1.392 0.19,1.014 0,0.548 0,0" />
      </g>
      <g
         transform="translate(277.9424,480.374)"
         id="g6196"
         style="fill:#ffffff;fill-opacity:1">
        <path
           inkscape:connector-curvature="0"
           id="path6198"
           style="fill:#ffffff;fill-opacity:1;fill-rule:nonzero;stroke:none"
           d="m 0,0 c 0,-0.495 0.195,-0.904 0.587,-1.233 0.391,-0.327 0.871,-0.622 1.448,-0.898 0.577,-0.277 1.204,-0.565 1.883,-0.864 0.675,-0.301 1.302,-0.678 1.879,-1.134 0.572,-0.459 1.056,-1.014 1.449,-1.667 0.391,-0.651 0.585,-1.463 0.585,-2.426 0,-0.809 -0.155,-1.575 -0.467,-2.294 -0.318,-0.715 -0.731,-1.334 -1.257,-1.86 -0.519,-0.521 -1.139,-0.938 -1.856,-1.253 -0.723,-0.313 -1.483,-0.469 -2.295,-0.469 -0.809,0 -1.57,0.156 -2.289,0.469 -0.72,0.315 -1.34,0.732 -1.862,1.253 -0.521,0.526 -0.94,1.145 -1.255,1.86 -0.312,0.719 -0.466,1.485 -0.466,2.294 l 3.916,0 c 0,-0.548 0.188,-1.011 0.568,-1.389 0.379,-0.381 0.84,-0.57 1.388,-0.57 0.55,0 1.013,0.189 1.392,0.57 0.379,0.378 0.57,0.841 0.57,1.389 0,0.496 -0.198,0.904 -0.589,1.234 -0.391,0.326 -0.875,0.632 -1.45,0.92 -0.576,0.288 -1.2,0.577 -1.879,0.88 -0.679,0.301 -1.306,0.679 -1.878,1.136 -0.577,0.458 -1.063,1.012 -1.453,1.664 -0.391,0.653 -0.585,1.477 -0.585,2.469 0,0.807 0.154,1.566 0.466,2.27 0.315,0.705 0.74,1.317 1.276,1.84 0.534,0.525 1.156,0.934 1.857,1.235 0.706,0.302 1.464,0.449 2.273,0.449 0.812,0 1.572,-0.153 2.295,-0.471 C 4.968,5.094 5.588,4.674 6.107,4.153 6.633,3.63 7.046,3.01 7.364,2.291 7.676,1.574 7.831,0.812 7.831,0 L 3.918,0 c 0,0.548 -0.191,1.014 -0.57,1.392 C 2.969,1.769 2.506,1.959 1.956,1.959 1.408,1.959 0.947,1.769 0.568,1.392 0.188,1.014 0,0.548 0,0" />
      </g>
      <path
         inkscape:connector-curvature="0"
         id="path6200"
         style="fill:#ffffff;fill-opacity:1;fill-rule:nonzero;stroke:none"
         d="m 288.563,486.053 3.918,0 0,-19.583 -3.918,0 0,19.583 z" />
      <g
         transform="translate(298.7461,486.0527)"
         id="g6202"
         style="fill:#ffffff;fill-opacity:1">
        <path
           inkscape:connector-curvature="0"
           id="path6204"
           style="fill:#ffffff;fill-opacity:1;fill-rule:nonzero;stroke:none"
           d="M 0,0 2.939,-11.747 5.874,0 9.792,0 4.898,-19.583 l -3.919,0 L -3.918,0 0,0 Z" />
      </g>
      <g
         transform="translate(313.2676,478.417)"
         id="g6206"
         style="fill:#ffffff;fill-opacity:1">
        <path
           inkscape:connector-curvature="0"
           id="path6208"
           style="fill:#ffffff;fill-opacity:1;fill-rule:nonzero;stroke:none"
           d="m 0,0 3.916,0 0,1.957 c 0,0.548 -0.19,1.014 -0.568,1.392 C 2.97,3.726 2.505,3.916 1.956,3.916 1.41,3.916 0.947,3.726 0.569,3.349 0.19,2.971 0,2.505 0,1.957 L 0,0 Z m 1.956,-8.224 c 0.549,0 1.014,0.189 1.392,0.57 0.378,0.378 0.568,0.842 0.568,1.389 l 3.918,0 c 0,-0.809 -0.161,-1.575 -0.472,-2.294 -0.311,-0.715 -0.731,-1.334 -1.25,-1.86 -0.525,-0.521 -1.145,-0.938 -1.864,-1.253 -0.717,-0.313 -1.482,-0.469 -2.292,-0.469 -0.806,0 -1.571,0.156 -2.291,0.469 -0.715,0.315 -1.338,0.732 -1.855,1.253 -0.525,0.526 -0.944,1.145 -1.256,1.86 -0.312,0.719 -0.472,1.485 -0.472,2.294 l 0,8.222 c 0,0.812 0.16,1.574 0.472,2.291 0.312,0.719 0.731,1.339 1.256,1.862 0.517,0.521 1.14,0.941 1.855,1.251 0.72,0.318 1.485,0.471 2.291,0.471 0.81,0 1.575,-0.153 2.292,-0.471 C 4.967,7.051 5.587,6.631 6.112,6.11 6.631,5.587 7.051,4.967 7.362,4.248 7.673,3.531 7.834,2.769 7.834,1.957 l 0,-4.895 -7.834,0 0,-3.327 c 0,-0.547 0.19,-1.011 0.569,-1.389 0.378,-0.381 0.841,-0.57 1.387,-0.57" />
      </g>
      <g
         transform="translate(336.1621,491.9287)"
         id="g6210"
         style="fill:#ffffff;fill-opacity:1">
        <path
           inkscape:connector-curvature="0"
           id="path6212"
           style="fill:#ffffff;fill-opacity:1;fill-rule:nonzero;stroke:none"
           d="M 0,0 C -0.546,0 -1.011,-0.189 -1.389,-0.568 -1.767,-0.946 -1.958,-1.41 -1.958,-1.959 l 0,-7.83 3.918,0 0,-3.918 -3.918,0 0,-11.752 -3.916,0 0,23.5 c 0,0.813 0.159,1.575 0.472,2.293 0.312,0.717 0.731,1.338 1.251,1.86 0.522,0.521 1.143,0.941 1.862,1.253 0.717,0.315 1.484,0.471 2.289,0.471 0.809,0 1.576,-0.156 2.292,-0.471 0.719,-0.312 1.337,-0.732 1.862,-1.253 0.52,-0.522 0.94,-1.143 1.251,-1.86 0.313,-0.718 0.473,-1.48 0.473,-2.293 l -3.918,0 c 0,0.549 -0.19,1.013 -0.567,1.391 C 1.014,-0.189 0.551,0 0,0" />
      </g>
      <g
         transform="translate(352.5732,486.0527)"
         id="g6214"
         style="fill:#ffffff;fill-opacity:1">
        <path
           inkscape:connector-curvature="0"
           id="path6216"
           style="fill:#ffffff;fill-opacity:1;fill-rule:nonzero;stroke:none"
           d="m 0,0 0,-14.098 c 0,-0.807 -0.156,-1.573 -0.471,-2.291 -0.311,-0.718 -0.732,-1.338 -1.252,-1.858 -0.524,-0.524 -1.143,-0.94 -1.861,-1.256 -0.718,-0.311 -1.479,-0.471 -2.292,-0.471 -0.809,0 -1.572,0.16 -2.291,0.471 -0.717,0.316 -1.34,0.732 -1.857,1.256 -0.525,0.52 -0.944,1.14 -1.254,1.858 -0.317,0.718 -0.469,1.484 -0.469,2.291 l 0,14.098 3.913,0 0,-14.098 c 0,-0.548 0.191,-1.012 0.569,-1.389 0.378,-0.379 0.843,-0.57 1.389,-0.57 0.549,0 1.012,0.191 1.39,0.57 0.38,0.377 0.569,0.841 0.569,1.389 L -3.917,0 0,0 Z" />
      </g>
      <g
         transform="translate(361.1953,486.249)"
         id="g6218"
         style="fill:#ffffff;fill-opacity:1">
        <path
           inkscape:connector-curvature="0"
           id="path6220"
           style="fill:#ffffff;fill-opacity:1;fill-rule:nonzero;stroke:none"
           d="m 0,0 c 0.808,0 1.571,-0.153 2.284,-0.471 0.718,-0.31 1.339,-0.73 1.862,-1.251 0.521,-0.523 0.937,-1.143 1.25,-1.862 0.318,-0.717 0.469,-1.479 0.469,-2.291 l 0,-13.904 -3.908,0 0,13.904 c 0,0.548 -0.192,1.014 -0.566,1.392 -0.383,0.377 -0.843,0.567 -1.391,0.567 -0.552,0 -1.012,-0.19 -1.39,-0.567 -0.381,-0.378 -0.569,-0.844 -0.569,-1.392 l 0,-13.904 -3.916,0 0,19.583 2.861,0 0,-0.624 c 0.443,0.259 0.918,0.461 1.427,0.608 C -1.077,-0.07 -0.552,0 0,0" />
      </g>
      <g
         transform="translate(373.5928,472.1523)"
         id="g6222"
         style="fill:#ffffff;fill-opacity:1">
        <path
           inkscape:connector-curvature="0"
           id="path6224"
           style="fill:#ffffff;fill-opacity:1;fill-rule:nonzero;stroke:none"
           d="m 0,0 c 0,-0.548 0.186,-1.012 0.566,-1.39 0.38,-0.381 0.839,-0.569 1.392,-0.569 0.521,0 0.978,0.188 1.369,0.569 0.392,0.378 0.589,0.842 0.589,1.39 l 0,8.222 C 3.916,8.77 3.719,9.235 3.327,9.613 2.936,9.99 2.479,10.181 1.958,10.181 1.405,10.181 0.946,9.99 0.566,9.613 0.186,9.235 0,8.77 0,8.222 L 0,0 Z m 1.958,-5.876 c -0.812,0 -1.574,0.155 -2.291,0.469 -0.722,0.314 -1.34,0.731 -1.863,1.253 -0.523,0.526 -0.939,1.144 -1.25,1.86 C -3.76,-1.575 -3.917,-0.81 -3.917,0 l 0,8.222 c 0,0.811 0.157,1.574 0.471,2.291 0.311,0.718 0.727,1.339 1.25,1.862 0.523,0.521 1.141,0.94 1.863,1.251 0.717,0.317 1.479,0.471 2.291,0.471 0.676,0 1.33,-0.116 1.958,-0.351 l 0,7.989 3.917,0 0,-27.418 -2.858,0 0,0.629 C 4.529,-5.314 4.05,-5.518 3.543,-5.661 3.036,-5.803 2.506,-5.876 1.958,-5.876" />
      </g>
      <g
         transform="translate(292.5449,490.3896)"
         id="g6226"
         style="fill:#ffffff;fill-opacity:1">
        <path
           inkscape:connector-curvature="0"
           id="path6228"
           style="fill:#ffffff;fill-opacity:1;fill-rule:nonzero;stroke:none"
           d="m 0,0 c 0,-1.118 -0.908,-2.028 -2.026,-2.028 -1.121,0 -2.03,0.91 -2.03,2.028 0,1.119 0.909,2.031 2.03,2.031 C -0.908,2.031 0,1.119 0,0" />
      </g>
      <g
         transform="translate(190.6855,472.1055)"
         id="g6230"
         style="fill:#ffffff;fill-opacity:1">
        <path
           inkscape:connector-curvature="0"
           id="path6232"
           style="fill:#ffffff;fill-opacity:1;fill-rule:nonzero;stroke:none"
           d="m 0,0 c 0,-0.555 -0.205,-1.024 -0.614,-1.408 -0.411,-0.382 -0.911,-0.574 -1.506,-0.574 -0.595,0 -1.094,0.192 -1.505,0.574 -0.409,0.384 -0.613,0.853 -0.613,1.408 l 0,8.324 c 0,0.557 0.204,1.026 0.613,1.409 0.411,0.381 0.91,0.574 1.505,0.574 0.595,0 1.095,-0.193 1.506,-0.574 C -0.205,9.35 0,8.881 0,8.324 L 0,0 Z M 3.73,10.644 C 3.393,11.37 2.939,11.999 2.374,12.527 1.81,13.056 1.138,13.479 0.36,13.796 c -0.778,0.317 -1.603,0.475 -2.48,0.475 -0.875,0 -1.702,-0.158 -2.479,-0.475 -0.778,-0.317 -1.449,-0.74 -2.014,-1.269 C -7.179,11.999 -7.63,11.37 -7.97,10.644 -8.309,9.917 -8.478,9.145 -8.478,8.324 l 0,-5.498 -0.021,0 -0.003,-21.315 4.205,0 10e-4,12.912 c 0.689,-0.24 1.412,-0.369 2.176,-0.369 0.877,0 1.702,0.158 2.48,0.475 0.778,0.318 1.45,0.741 2.014,1.269 0.565,0.527 1.019,1.154 1.356,1.882 0.339,0.727 0.509,1.501 0.509,2.32 l 0,8.324 c 0,0.821 -0.17,1.593 -0.509,2.32" />
      </g>
    </g>
  </g>
</svg>
